<svg width="302" height="362" viewBox="0 0 302 362" fill="none" xmlns="http://www.w3.org/2000/svg">
<path fill-rule="evenodd" clip-rule="evenodd" d="M300.86 100.386L301.284 101.202L300.4 101.453L142.997 146.119L140.893 146.716L142.188 144.953L247.999 0.971651L248.713 0L249.269 1.07005L300.86 100.386ZM144.693 144.079L299.105 100.261L248.493 2.83157L144.693 144.079ZM0 361.11C0.749573 360.61 1.50984 360.11 2.28064 359.61C34.3144 338.808 84.5535 317.146 142.196 303.521C187.306 292.859 231.727 287.892 266.283 288.25L266.283 359.61L266.283 361.11H264.783H2.7257H0ZM264.783 359.61H5.05555C36.9894 339.306 86.1948 318.3 142.541 304.981C186.906 294.495 230.581 289.536 264.783 289.737L264.783 359.61Z" fill="#C1CDD7"/>
</svg>
