<svg width="108" height="61" viewBox="0 0 108 61" fill="none" xmlns="http://www.w3.org/2000/svg">
<path fill-rule="evenodd" clip-rule="evenodd" d="M71.5418 0C71.0625 0 70.6145 0.238496 70.347 0.636191C70.0794 1.03389 70.0273 1.53865 70.2079 1.98264L74.6184 12.8252H38.7757L36.5204 9.63017H38.4663V6.75009H33.7413H25.6412V9.63017H32.9951L36.2529 14.2453L29.1175 23.4971C26.2943 21.918 23.0399 21.0179 19.5753 21.0179C8.76414 21.0179 0 29.782 0 40.5932C0 51.4043 8.76414 60.1684 19.5753 60.1684C29.2048 60.1684 37.2104 53.2152 38.8452 44.0556H58.0416C58.5323 44.0556 58.9893 43.8057 59.254 43.3926L76.2587 16.8576L78.9457 23.4632C72.9262 26.8021 68.8518 33.2218 68.8518 40.5932C68.8518 51.4043 77.616 60.1684 88.4271 60.1684C99.2382 60.1684 108.002 51.4043 108.002 40.5932C108.002 29.782 99.2382 21.0179 88.4271 21.0179C86.0121 21.0179 83.6993 21.4552 81.5635 22.255L73.6822 2.88008H87.742V0H71.5418ZM80.0404 26.1542L86.4081 41.8082L89.0759 40.723L82.6495 24.9247C84.4498 24.2606 86.3961 23.898 88.4271 23.898C97.6476 23.898 105.122 31.3727 105.122 40.5932C105.122 49.8137 97.6476 57.2883 88.4271 57.2883C79.2066 57.2883 71.7319 49.8137 71.7319 40.5932C71.7319 34.4298 75.0718 29.0464 80.0404 26.1542ZM39.142 41.1755H55.2624L37.991 16.7076L31.527 25.0888C36.1639 28.6686 39.1505 34.2821 39.1505 40.5932C39.1505 40.788 39.1477 40.9821 39.142 41.1755ZM29.768 27.3695C33.723 30.4226 36.2704 35.2104 36.2704 40.5932C36.2704 40.7881 36.2671 40.9822 36.2605 41.1755H19.1202L29.768 27.3695ZM27.3357 25.8074L15.0508 41.7361C14.7155 42.1708 14.6566 42.7583 14.8987 43.2509C15.1409 43.7435 15.6421 44.0556 16.1911 44.0556H35.9109C34.3167 51.6145 27.6086 57.2883 19.5753 57.2883C10.3548 57.2883 2.88008 49.8137 2.88008 40.5932C2.88008 31.3727 10.3548 23.898 19.5753 23.898C22.3768 23.898 25.0171 24.588 27.3357 25.8074ZM40.8087 15.7052H73.5764L57.9839 40.0367L40.8087 15.7052Z" fill="#FDFFFE"/>
</svg>
