<svg width="366" height="346" viewBox="0 0 366 346" fill="none" xmlns="http://www.w3.org/2000/svg">
<path d="M17.3281 276.814C-40.5038 261.092 -97.9339 254.045 -143.266 255.012L-152.144 369.802L202.383 366.577C162.5 333.477 96.9728 298.837 20.082 277.569L17.3281 276.814ZM-140.484 257.964C-95.1836 257.325 -38.0814 264.595 19.2822 280.461C91.7754 300.512 154.018 332.482 193.96 363.653L-148.9 366.771L-140.484 257.964ZM478.734 -198.637L274.854 134.207L272.567 137.938L276.661 136.394L611.084 10.2617L612.805 9.6123L611.823 8.05762L481.281 -198.654L479.994 -200.693L478.734 -198.637ZM608.305 8.10449L279.697 132.043L480.034 -195.014L608.305 8.10449Z" fill="#C1CDD7"/>
</svg>
