<svg width="366" height="346" viewBox="0 0 366 346" fill="none" xmlns="http://www.w3.org/2000/svg">
<path d="M376.312 65.2959C434.144 81.0188 491.575 88.0657 536.906 87.0986L545.784 -27.6914L191.258 -24.4668C231.141 8.6333 296.668 43.2737 373.559 64.541L376.312 65.2959ZM534.125 84.1465C488.824 84.7851 431.722 77.5156 374.358 61.6494C301.865 41.5985 239.623 9.6286 199.681 -21.543L542.541 -24.6611L534.125 84.1465ZM-51.9248 572.457L201.803 275.852L204.647 272.527L200.361 273.408L-149.745 345.332L-151.547 345.702L-150.822 347.393L-54.4424 572.074L-53.4922 574.29L-51.9248 572.457ZM-147.34 347.899L196.679 277.227L-52.6377 568.675L-147.34 347.899Z" fill="#C1CDD7"/>
</svg>
