<svg width="343" height="220" viewBox="0 0 343 220" fill="none" xmlns="http://www.w3.org/2000/svg">
<path d="M-73.708 161.012C-28.3763 160.045 29.0539 167.092 86.8857 182.814L89.6396 183.569C166.53 204.837 232.058 239.477 271.94 272.577L-82.5859 275.802L-73.708 161.012ZM89.1064 185.497C31.2783 169.502 -26.3011 162.226 -71.8535 162.978L-80.4238 273.782L266.368 270.628C226.41 238.807 163.068 205.954 89.1064 185.497ZM307.486 -205.376L511.367 127.468L512.891 129.956L510.162 128.926L175.739 2.79395L174.592 2.36133L175.246 1.3252L305.788 -205.387L306.646 -206.746L307.486 -205.376ZM177.592 1.35547L508.138 126.026L306.618 -202.96L177.592 1.35547Z" fill="#C1CDD7"/>
</svg>
