<svg width="343" height="220" viewBox="0 0 343 220" fill="none" xmlns="http://www.w3.org/2000/svg">
<path d="M-7.67188 169.812C-65.5038 154.09 -122.934 147.043 -168.266 148.01L-177.144 262.8L177.383 259.575C137.5 226.475 71.9728 191.835 -4.91797 170.567L-7.67188 169.812ZM-166.411 149.976C-120.859 149.224 -63.2794 156.5 -5.45117 172.495C68.5099 192.952 131.853 225.805 171.811 257.626L-174.981 260.78L-166.411 149.976ZM483.16 -255.374L279.279 77.4697L277.756 79.958L280.484 78.9277L614.907 -47.2041L616.055 -47.6367L615.4 -48.6729L484.858 -255.385L484 -256.744L483.16 -255.374ZM613.055 -48.6426L282.509 76.0283L484.028 -252.958L613.055 -48.6426Z" fill="#C1CDD7"/>
</svg>
