<svg width="1199" height="612" viewBox="0 0 1199 612" fill="none" xmlns="http://www.w3.org/2000/svg">
<rect x="1" y="1" width="577.836" height="610" fill="#FBF4F1"/>
<rect x="1" y="1" width="577.836" height="610" stroke="#231F20" stroke-width="2"/>
<path d="M39.1553 48L40.3271 42.2139H35.8887L34.7168 48H32.2266L33.3838 42.2139H30L30.4834 39.7383H33.8965L34.8633 34.8896H31.333L31.8311 32.4287H35.3613L36.5186 26.8623H39.0088L37.8955 32.4287H42.3193L43.4619 26.8623H45.9668L44.8389 32.4287H48.4131L47.9443 34.8896H44.3262L43.3301 39.7383H47.0508L46.582 42.2139H42.8467L41.6748 48H39.1553ZM36.2842 39.8555H40.8838L41.9238 34.7871H37.3096L36.2842 39.8555ZM53.6572 48H50.376V26.8623H63.5742V29.6895H53.6572V36.3838H62.7393V39.1523H53.6572V48ZM74.9121 48H66.4307V26.8623H74.8682C78.6182 26.8623 81.0791 28.9424 81.0791 32.1357C81.0791 34.377 79.4238 36.3838 77.3145 36.7354V36.8525C80.1855 37.1748 82.1191 39.2109 82.1191 42.0234C82.1191 45.7441 79.4092 48 74.9121 48ZM69.7119 29.543V35.8564H73.3887C76.2305 35.8564 77.7979 34.6846 77.7979 32.5898C77.7979 30.627 76.4502 29.543 74.0771 29.543H69.7119ZM69.7119 45.3193H74.2383C77.1973 45.3193 78.7646 44.1035 78.7646 41.8184C78.7646 39.5332 77.1533 38.3613 74.0479 38.3613H69.7119V45.3193ZM88.2275 48H84.9463V26.8623H98.1445V29.6895H88.2275V36.3838H97.3096V39.1523H88.2275V48ZM110.742 48V43.8252H100.166V40.9541C101.982 37.541 104.385 33.7471 109.146 26.8623H113.892V41.0713H116.792V43.8252H113.892V48H110.742ZM103.228 41.042V41.1152H110.771V29.3965H110.713C107.051 34.6846 104.912 37.9805 103.228 41.042ZM122.915 48H119.634V26.8623H132.832V29.6895H122.915V36.3838H131.997V39.1523H122.915V48ZM140.728 48V30.1143H140.654L135.132 34.04V30.8174L140.698 26.8623H143.936V48H140.728Z" fill="black"/>
<rect width="619.164" height="264" transform="translate(579.836)" fill="#231F20"/>
<path d="M615.991 48L617.163 42.2139H612.725L611.553 48H609.062L610.22 42.2139H606.836L607.319 39.7383H610.732L611.699 34.8896H608.169L608.667 32.4287H612.197L613.354 26.8623H615.845L614.731 32.4287H619.155L620.298 26.8623H622.803L621.675 32.4287H625.249L624.78 34.8896H621.162L620.166 39.7383H623.887L623.418 42.2139H619.683L618.511 48H615.991ZM613.12 39.8555H617.72L618.76 34.7871H614.146L613.12 39.8555ZM626.729 33.0586C626.729 29.25 629.79 26.4668 633.994 26.4668C638.022 26.4668 641.025 29.0303 641.025 32.3848C641.025 34.8457 639.707 36.6768 636.616 39.8408L631.328 45.1582V45.2314H641.362V48H626.904V45.7734L634.536 37.9951C637.114 35.3145 637.788 34.2012 637.788 32.5459C637.788 30.6709 636.089 29.1768 633.892 29.1768C631.577 29.1768 629.834 30.8467 629.834 33.0439V33.0879H626.729V33.0586ZM648.877 38.4346V35.8564H651.426C653.711 35.8564 655.278 34.4209 655.278 32.4287C655.278 30.4658 653.931 29.1621 651.426 29.1621C649.141 29.1621 647.617 30.4805 647.427 32.5605H644.336C644.585 28.8545 647.383 26.4668 651.572 26.4668C655.571 26.4668 658.486 28.7373 658.486 31.9893C658.486 34.626 656.758 36.5156 654.136 36.9844V37.043C657.314 37.2627 659.365 39.2109 659.365 42.1699C659.365 45.8613 656.011 48.3955 651.602 48.3955C647.046 48.3955 644.116 45.8906 643.911 42.2432H647.061C647.266 44.2646 648.936 45.6562 651.602 45.6562C654.18 45.6562 656.025 44.1914 656.025 42.126C656.025 39.8408 654.297 38.4346 651.514 38.4346H648.877ZM667.788 48V30.1143H667.715L662.192 34.04V30.8174L667.759 26.8623H670.996V48H667.788ZM679.741 48H676.46V26.8623H689.658V29.6895H679.741V36.3838H688.823V39.1523H679.741V48ZM692.031 33.0586C692.031 29.25 695.093 26.4668 699.297 26.4668C703.325 26.4668 706.328 29.0303 706.328 32.3848C706.328 34.8457 705.01 36.6768 701.919 39.8408L696.631 45.1582V45.2314H706.665V48H692.207V45.7734L699.839 37.9951C702.417 35.3145 703.091 34.2012 703.091 32.5459C703.091 30.6709 701.392 29.1768 699.194 29.1768C696.88 29.1768 695.137 30.8467 695.137 33.0439V33.0879H692.031V33.0586ZM717.285 48.3955C712.217 48.3955 709.214 44.1475 709.214 37.4092C709.214 30.7148 712.246 26.4668 717.285 26.4668C722.339 26.4668 725.327 30.7002 725.327 37.3945C725.327 44.1328 722.354 48.3955 717.285 48.3955ZM717.285 45.6416C720.303 45.6416 722.017 42.5215 722.017 37.4092C722.017 32.3701 720.273 29.2207 717.285 29.2207C714.297 29.2207 712.539 32.3848 712.539 37.4092C712.539 42.5068 714.268 45.6416 717.285 45.6416Z" fill="white"/>
<rect width="312.607" height="348" transform="translate(579.836 264)" fill="#6A7C64"/>
<path d="M615.991 312L617.163 306.214H612.725L611.553 312H609.062L610.22 306.214H606.836L607.319 303.738H610.732L611.699 298.89H608.169L608.667 296.429H612.197L613.354 290.862H615.845L614.731 296.429H619.155L620.298 290.862H622.803L621.675 296.429H625.249L624.78 298.89H621.162L620.166 303.738H623.887L623.418 306.214H619.683L618.511 312H615.991ZM613.12 303.855H617.72L618.76 298.787H614.146L613.12 303.855ZM634.858 312.41C631.738 312.41 629.233 310.813 627.856 307.957C626.992 306.272 626.553 304.192 626.553 301.717C626.553 294.642 629.717 290.452 635.005 290.452C638.74 290.452 641.641 292.693 642.285 296.062H639.004C638.491 294.334 636.909 293.206 634.976 293.206C631.65 293.206 629.717 296.224 629.702 301.541H629.761C630.684 299.49 632.925 298.113 635.562 298.113C639.59 298.113 642.578 301.087 642.578 305.101C642.578 309.334 639.341 312.41 634.858 312.41ZM634.829 309.642C637.319 309.642 639.312 307.679 639.312 305.203C639.312 302.64 637.451 300.794 634.858 300.794C632.28 300.794 630.361 302.64 630.361 305.145C630.361 307.649 632.31 309.642 634.829 309.642ZM659.351 312L657.417 306.287H649.36L647.427 312H644.014L651.646 290.862H655.19L662.822 312H659.351ZM653.345 294.378L650.195 303.65H656.582L653.433 294.378H653.345ZM665.488 312L674.878 293.704V293.631H663.73V290.862H678.115V293.704L668.931 312H665.488ZM690.186 312.352C684.253 312.352 680.503 308.162 680.503 301.424C680.503 294.729 684.282 290.511 690.186 290.511C694.976 290.511 698.594 293.455 699.15 297.864H695.898C695.312 295.154 693.057 293.382 690.186 293.382C686.348 293.382 683.857 296.531 683.857 301.424C683.857 306.36 686.318 309.48 690.2 309.48C693.145 309.48 695.239 307.972 695.898 305.423H699.165C698.359 309.788 695.049 312.352 690.186 312.352ZM709.771 312.41C706.65 312.41 704.146 310.813 702.769 307.957C701.904 306.272 701.465 304.192 701.465 301.717C701.465 294.642 704.629 290.452 709.917 290.452C713.652 290.452 716.553 292.693 717.197 296.062H713.916C713.403 294.334 711.821 293.206 709.888 293.206C706.562 293.206 704.629 296.224 704.614 301.541H704.673C705.596 299.49 707.837 298.113 710.474 298.113C714.502 298.113 717.49 301.087 717.49 305.101C717.49 309.334 714.253 312.41 709.771 312.41ZM709.741 309.642C712.231 309.642 714.224 307.679 714.224 305.203C714.224 302.64 712.363 300.794 709.771 300.794C707.192 300.794 705.273 302.64 705.273 305.145C705.273 307.649 707.222 309.642 709.741 309.642ZM730.322 312V307.825H719.746V304.954C721.562 301.541 723.965 297.747 728.726 290.862H733.472V305.071H736.372V307.825H733.472V312H730.322ZM722.808 305.042V305.115H730.352V293.396H730.293C726.631 298.685 724.492 301.98 722.808 305.042Z" fill="white"/>
<rect width="306.557" height="347" transform="translate(892.445 264)" fill="#6C8290"/>
<path d="M928.601 312L929.772 306.214H925.334L924.162 312H921.672L922.829 306.214H919.445L919.929 303.738H923.342L924.309 298.89H920.778L921.276 296.429H924.807L925.964 290.862H928.454L927.341 296.429H931.765L932.907 290.862H935.412L934.284 296.429H937.858L937.39 298.89H933.771L932.775 303.738H936.496L936.027 306.214H932.292L931.12 312H928.601ZM925.729 303.855H930.329L931.369 298.787H926.755L925.729 303.855ZM947.468 312.41C944.348 312.41 941.843 310.813 940.466 307.957C939.602 306.272 939.162 304.192 939.162 301.717C939.162 294.642 942.326 290.452 947.614 290.452C951.35 290.452 954.25 292.693 954.895 296.062H951.613C951.101 294.334 949.519 293.206 947.585 293.206C944.26 293.206 942.326 296.224 942.312 301.541H942.37C943.293 299.49 945.534 298.113 948.171 298.113C952.199 298.113 955.188 301.087 955.188 305.101C955.188 309.334 951.95 312.41 947.468 312.41ZM947.438 309.642C949.929 309.642 951.921 307.679 951.921 305.203C951.921 302.64 950.061 300.794 947.468 300.794C944.89 300.794 942.971 302.64 942.971 305.145C942.971 307.649 944.919 309.642 947.438 309.642ZM967.199 312.352C961.267 312.352 957.517 308.162 957.517 301.424C957.517 294.729 961.296 290.511 967.199 290.511C971.989 290.511 975.607 293.455 976.164 297.864H972.912C972.326 295.154 970.07 293.382 967.199 293.382C963.361 293.382 960.871 296.531 960.871 301.424C960.871 306.36 963.332 309.48 967.214 309.48C970.158 309.48 972.253 307.972 972.912 305.423H976.179C975.373 309.788 972.062 312.352 967.199 312.352ZM986.462 312.396C981.745 312.396 978.464 309.861 978.464 306.287C978.464 303.592 980.368 301.438 983.166 300.853V300.779C980.822 300.135 979.313 298.304 979.313 296.033C979.313 292.825 982.316 290.467 986.462 290.467C990.622 290.467 993.596 292.811 993.596 296.048C993.596 298.289 992.102 300.105 989.758 300.779V300.853C992.57 301.438 994.46 303.606 994.46 306.287C994.46 309.876 991.149 312.396 986.462 312.396ZM986.462 309.759C989.157 309.759 991.062 308.206 991.062 306.053C991.062 303.87 989.157 302.317 986.462 302.317C983.767 302.317 981.848 303.885 981.848 306.053C981.848 308.206 983.767 309.759 986.462 309.759ZM986.462 299.681C988.732 299.681 990.358 298.304 990.358 296.385C990.358 294.451 988.747 293.074 986.462 293.074C984.162 293.074 982.565 294.451 982.565 296.385C982.565 298.304 984.162 299.681 986.462 299.681ZM997.199 297.059C997.199 293.25 1000.26 290.467 1004.46 290.467C1008.49 290.467 1011.5 293.03 1011.5 296.385C1011.5 298.846 1010.18 300.677 1007.09 303.841L1001.8 309.158V309.231H1011.83V312H997.375V309.773L1005.01 301.995C1007.58 299.314 1008.26 298.201 1008.26 296.546C1008.26 294.671 1006.56 293.177 1004.36 293.177C1002.05 293.177 1000.3 294.847 1000.3 297.044V297.088H997.199V297.059ZM1021.84 312.396C1018.07 312.396 1015.16 310.14 1014.53 306.785H1017.82C1018.32 308.514 1019.93 309.671 1021.88 309.671C1025.18 309.671 1027.11 306.624 1027.11 301.292C1027.11 301.292 1027.1 301.292 1027.08 301.292H1027.07H1027.05C1026.2 303.372 1023.98 304.749 1021.25 304.749C1017.24 304.749 1014.24 301.775 1014.24 297.762C1014.24 293.528 1017.49 290.452 1021.96 290.452C1025.09 290.452 1027.61 292.049 1028.97 294.891C1029.84 296.575 1030.28 298.655 1030.28 301.131C1030.28 308.206 1027.14 312.396 1021.84 312.396ZM1021.96 302.068C1024.55 302.068 1026.48 300.208 1026.48 297.718C1026.48 295.213 1024.52 293.25 1022 293.25C1019.48 293.25 1017.5 295.198 1017.5 297.659C1017.5 300.193 1019.39 302.068 1021.96 302.068ZM1040.91 312.396C1035.84 312.396 1032.84 308.147 1032.84 301.409C1032.84 294.715 1035.87 290.467 1040.91 290.467C1045.96 290.467 1048.95 294.7 1048.95 301.395C1048.95 308.133 1045.98 312.396 1040.91 312.396ZM1040.91 309.642C1043.93 309.642 1045.64 306.521 1045.64 301.409C1045.64 296.37 1043.9 293.221 1040.91 293.221C1037.92 293.221 1036.16 296.385 1036.16 301.409C1036.16 306.507 1037.89 309.642 1040.91 309.642Z" fill="white"/>
</svg>
