<svg width="665" height="399" viewBox="0 0 665 399" fill="none" xmlns="http://www.w3.org/2000/svg">
<path fill-rule="evenodd" clip-rule="evenodd" d="M36.5364 13C16.3579 13 0 29.3579 0 49.5364V362.115C0 382.294 16.3579 398.651 36.5364 398.651H116.944V398.654H219.964C220.931 398.719 221.904 398.753 222.881 398.753H223.418V398.765H315.893V398.754H327.903V398.386C329.396 398.628 330.954 398.753 332.573 398.753C358.7 398.753 415.959 368.238 432.752 348.223L654.879 83.4805C678.303 55.5628 658.455 13.0002 622.012 13.0002H348.296C324.601 13.0002 305.392 32.2089 305.392 55.9039V277.214H305.288C304.626 289.004 295.136 298.355 283.527 298.355C273.281 298.355 264.686 291.071 262.354 281.255L184.29 42.5672C178.521 24.9301 162.068 13.0002 143.511 13.0002H139.261L139.131 13H36.5364Z" fill="#231F20"/>
<line x1="288" y1="398" x2="647.068" y2="398" stroke="#231F20" stroke-width="2"/>
<line x1="306" y1="295" x2="306" stroke="#231F20" stroke-width="2"/>
<line x1="292" y1="13.5" x2="608.07" y2="13.5" stroke="#231F20" stroke-width="2"/>
<path d="M481.266 300.998C480.891 301.403 480.916 302.036 481.321 302.411L487.928 308.522C488.334 308.897 488.967 308.873 489.342 308.467C489.717 308.062 489.692 307.429 489.287 307.054L483.414 301.622L488.846 295.749C489.221 295.343 489.196 294.711 488.791 294.336C488.385 293.961 487.753 293.985 487.378 294.391L481.266 300.998ZM487.531 385.945C487.188 386.378 487.261 387.007 487.694 387.35L494.75 392.936C495.183 393.279 495.812 393.206 496.155 392.773C496.498 392.34 496.425 391.711 495.992 391.368L489.719 386.402L494.685 380.13C495.028 379.697 494.955 379.068 494.522 378.725C494.089 378.382 493.46 378.456 493.117 378.889L487.531 385.945ZM482.039 302.676C489.228 302.396 500.046 303.995 509.091 309.661C518.077 315.29 525.368 324.96 525.602 341.018L527.602 340.989C527.357 324.214 519.681 313.934 510.153 307.966C500.684 302.034 489.441 300.386 481.962 300.678L482.039 302.676ZM525.602 341.018C525.837 357.134 519.635 367.873 511.835 374.783C504 381.725 494.51 384.839 488.199 385.572L488.43 387.559C495.081 386.786 504.974 383.535 513.161 376.28C521.384 368.995 527.845 357.706 527.602 340.989L525.602 341.018Z" fill="black"/>
<path d="M538.83 317.39C532.71 317.39 529.98 314.96 528.93 311.96L533.04 310.76C533.88 312.95 535.47 314.36 538.74 314.36C542.4 314.36 544.08 312.53 544.08 309.86C544.08 307.22 542.37 305.45 538.89 305.45C535.86 305.45 534.27 306.8 533.61 307.91L529.92 307.28L531.15 296H547.59V299.24H534.42L533.79 304.94C534.6 304.07 536.61 302.63 540.3 302.63C545.79 302.63 548.82 305.66 548.82 309.8C548.82 314.06 545.64 317.39 538.83 317.39ZM561.671 317.39C555.341 317.39 551.261 313.49 551.261 306.56C551.261 299.51 555.311 295.61 561.671 295.61C568.061 295.61 572.111 299.51 572.111 306.14C572.111 313.43 568.031 317.39 561.671 317.39ZM561.671 314.39C564.911 314.39 567.371 311.99 567.371 306.17C567.371 300.86 564.971 298.49 561.671 298.49C558.401 298.49 556.001 300.86 556.001 306.47C556.001 311.99 558.461 314.39 561.671 314.39ZM581.122 306.74C577.672 306.74 575.302 304.43 575.302 301.19C575.302 298.1 577.672 295.76 581.122 295.76C584.632 295.76 587.002 298.1 587.002 301.19C587.002 304.43 584.632 306.74 581.122 306.74ZM581.122 304.28C582.982 304.28 584.182 302.99 584.182 301.19C584.182 299.42 582.982 298.19 581.122 298.19C579.322 298.19 578.122 299.42 578.122 301.19C578.122 302.99 579.322 304.28 581.122 304.28Z" fill="black"/>
<circle cx="351" cy="58" r="40" stroke="#FBF4F1" stroke-width="2"/>
<line x1="351" y1="45" x2="351" y2="72" stroke="white" stroke-width="2"/>
<line x1="337" y1="58" x2="364" y2="58" stroke="white" stroke-width="2"/>
</svg>
