<svg width="522" height="300" viewBox="0 0 522 300" fill="none" xmlns="http://www.w3.org/2000/svg">
<rect x="1" y="1.95312" width="249" height="141.429" rx="16.9286" fill="#FBF4F1" stroke="#231F20" stroke-width="2"/>
<path fill-rule="evenodd" clip-rule="evenodd" d="M68.0453 35.0156C64.1284 35.0156 60.9531 38.1909 60.9531 42.1078V102.784C60.9531 106.701 64.1284 109.876 68.0453 109.876H83.6525V109.877H103.66C103.845 109.889 104.031 109.896 104.218 109.896H104.321V109.897H122.272V109.896H124.606V109.824C124.896 109.871 125.198 109.896 125.513 109.896C130.584 109.896 141.699 103.972 144.959 100.087L188.077 48.6968C192.624 43.2776 188.771 35.0156 181.697 35.0156H128.565C123.965 35.0156 120.237 38.7443 120.237 43.3438V86.3018H120.213C120.086 88.5915 118.243 90.4078 115.989 90.4078C113.996 90.4078 112.325 88.988 111.876 87.0765L96.7266 40.755C95.6068 37.3314 92.413 35.0156 88.8109 35.0156H87.9604H69.2954H68.0453Z" fill="#231F20"/>
<rect y="156.336" width="251" height="143.429" rx="17.9286" fill="#231F20"/>
<path fill-rule="evenodd" clip-rule="evenodd" d="M68.0453 190.398C64.1284 190.398 60.9531 193.574 60.9531 197.491V258.167C60.9531 262.083 64.1284 265.259 68.0453 265.259H83.6525V265.26H103.66C103.845 265.272 104.031 265.278 104.218 265.278H104.321V265.283H122.272V265.279H124.606V265.207C124.896 265.254 125.198 265.278 125.513 265.278C130.584 265.278 141.699 259.355 144.959 255.47L188.077 204.08C192.624 198.66 188.771 190.398 181.697 190.398H128.565C123.965 190.398 120.237 194.127 120.237 198.727V241.688H120.213C120.085 243.976 118.243 245.791 115.989 245.791C113.995 245.791 112.324 244.37 111.876 242.458L96.7266 196.138C95.6068 192.714 92.413 190.398 88.8109 190.398H87.9604H69.2954H68.0453Z" fill="#FBF4F1"/>
<rect x="271" y="1" width="251" height="143.429" rx="17.9286" fill="#798872"/>
<path fill-rule="evenodd" clip-rule="evenodd" d="M339.045 35.0625C335.128 35.0625 331.953 38.2378 331.953 42.1547V102.831C331.953 106.748 335.128 109.923 339.045 109.923H354.652V109.924H374.66C374.845 109.936 375.031 109.942 375.218 109.942H375.321V109.944H393.272V109.943H395.606V109.871C395.896 109.918 396.198 109.942 396.513 109.942C401.584 109.942 412.699 104.019 415.959 100.134L459.077 48.7437C463.624 43.3245 459.771 35.0625 452.697 35.0625H399.565C394.965 35.0625 391.237 38.7912 391.237 43.3907V86.3487H391.213C391.086 88.6384 389.243 90.4547 386.989 90.4547C384.996 90.4547 383.325 89.0349 382.876 87.1234L367.727 40.8019C366.607 37.3782 363.413 35.0625 359.811 35.0625H358.96H340.295H339.045Z" fill="#FBF4F1"/>
<rect x="271" y="156.383" width="251" height="143.429" rx="17.9286" fill="#6C8290"/>
<path fill-rule="evenodd" clip-rule="evenodd" d="M339.045 190.445C335.128 190.445 331.953 193.621 331.953 197.538V258.213C331.953 262.13 335.128 265.306 339.045 265.306H354.652V265.307H374.66C374.845 265.319 375.031 265.325 375.218 265.325H375.321V265.33H393.272V265.326H395.606V265.254C395.896 265.301 396.198 265.325 396.513 265.325C401.584 265.325 412.699 259.402 415.959 255.517L459.077 204.127C463.624 198.707 459.771 190.445 452.697 190.445H399.565C394.965 190.445 391.237 194.174 391.237 198.774V241.734H391.213C391.085 244.023 389.243 245.838 386.989 245.838C384.995 245.838 383.324 244.417 382.876 242.505L367.727 196.185C366.607 192.761 363.413 190.445 359.811 190.445H358.96H340.295H339.045Z" fill="#FBF4F1"/>
</svg>
