<svg width="27" height="33" viewBox="0 0 27 33" fill="none" xmlns="http://www.w3.org/2000/svg">
<path d="M1.9518 28.9991H0.953125V31.4245H25.6702V28.9991H24.6715M1.9518 28.9991H8.19348H18.6795H24.6715M1.9518 28.9991C1.9518 28.9991 1.9518 25.2306 1.9518 22.9881V10.0981C1.9518 7.5631 1.9518 6.35312 1.9518 6.35312M1.9518 6.35312H0.953125L1 3.85645H8.69282M1.9518 6.35312H24.6715M24.6715 28.9991V6.35312M24.6715 6.35312H25.9199V3.85645H17.6808H14.4352H12.1882M8.69282 3.85645H12.1882M8.69282 3.85645V1.17822H12.1882V3.85645M7.94382 12.0955V16.5895H11.1895V12.0955H7.94382ZM15.1842 12.0955V16.5895H18.6795V12.0955H15.1842ZM7.94382 23.8298V19.3358H11.1895V23.8298H7.94382ZM15.1842 19.3358V23.8298H18.6795V19.3358H15.1842Z" stroke="#2E3338" stroke-width="1.2"/>
</svg>
