<svg width="45" height="27" viewBox="0 0 45 27" fill="none" xmlns="http://www.w3.org/2000/svg">
<path fill-rule="evenodd" clip-rule="evenodd" d="M29.8093 0.984944C29.6096 0.984944 29.4229 1.08431 29.3115 1.25002C29.2 1.41572 29.1782 1.62603 29.2535 1.81102L31.0912 6.32862H16.1571L15.2174 4.99741H16.0282V3.79741H14.0595H10.6845V4.99741H13.7486L15.1059 6.92032L12.1326 10.7756C10.9562 10.1174 9.59997 9.74227 8.15614 9.74227C3.65163 9.74227 0 13.3939 0 17.8984C0 22.4029 3.65163 26.0545 8.15614 26.0545C12.1684 26.0545 15.504 23.1574 16.1851 19.341H24.1843C24.3888 19.341 24.5792 19.2368 24.6895 19.0647L31.7746 8.00875L32.8938 10.7602C30.3849 12.1511 28.6865 14.8264 28.6865 17.8984C28.6865 22.4029 32.3382 26.0545 36.8427 26.0545C41.3472 26.0545 44.9988 22.4029 44.9988 17.8984C44.9988 13.3939 41.3472 9.74227 36.8427 9.74227C35.8371 9.74227 34.8741 9.92424 33.9846 10.257L30.7011 2.18494H36.5592V0.984944H29.8093ZM33.3499 11.8814L36.0034 18.4045L37.115 17.9524L34.4371 11.3694C35.1868 11.0931 35.9971 10.9423 36.8427 10.9423C40.6844 10.9423 43.7988 14.0566 43.7988 17.8984C43.7988 21.7402 40.6844 24.8545 36.8427 24.8545C33.0009 24.8545 29.8865 21.7402 29.8865 17.8984C29.8865 15.3297 31.2788 13.0862 33.3499 11.8814ZM16.3087 18.141H23.0264L15.8301 7.94625L13.1365 11.4389C15.0681 12.9304 16.3123 15.2691 16.3123 17.8984C16.3123 17.9795 16.3111 18.0604 16.3087 18.141ZM12.4036 12.3892C14.0511 13.6612 15.1123 15.6559 15.1123 17.8984C15.1123 17.9796 15.1109 18.0604 15.1081 18.141H7.96754L12.4036 12.3892ZM11.3902 11.7382L6.27197 18.3745C6.13229 18.5556 6.10773 18.8004 6.20863 19.0057C6.30954 19.2109 6.51836 19.341 6.74708 19.341H14.9625C14.2983 22.4905 11.5033 24.8545 8.15614 24.8545C4.31437 24.8545 1.2 21.7402 1.2 17.8984C1.2 14.0566 4.31437 10.9423 8.15614 10.9423C9.32367 10.9423 10.424 11.2299 11.3902 11.7382ZM17.0042 7.52862H30.657L24.1603 17.6665L17.0042 7.52862Z" fill="#2E3338"/>
</svg>
