<svg width="30" height="33" viewBox="0 0 30 33" fill="none" xmlns="http://www.w3.org/2000/svg">
<path d="M17.5581 28.969C20.8058 27.0204 23.1871 23.7729 23.1871 20.5253V16.6283M17.5581 28.969H6.9494M17.5581 28.969H19.7C21.0026 28.969 22.7543 29.1819 22.7543 30.4845V30.4845V30.4845C22.7543 31.7871 21.0026 32 19.7 32H5.20275C3.77173 32 1.77239 31.9406 1.75369 30.5097C1.75359 30.5013 1.75353 30.4929 1.75353 30.4845C1.75353 30.476 1.75359 30.4676 1.75369 30.4593C1.77239 29.0284 3.77173 28.969 5.20275 28.969H6.9494M6.9494 28.969C4.13507 26.8039 1.32031 24.2059 1.32031 20.5253V12.7312H23.1871V16.6283M23.1871 16.6283C23.1871 16.6283 24.7029 15.3293 26.6514 15.3293C28.1669 15.3293 29.0329 16.6283 29.0329 17.4943C29.0329 18.5768 29.005 19.0658 28.5999 19.8758C27.0276 23.0205 21.8387 24.8554 21.8387 24.8554M8.46492 10.9992C8.11984 9.79141 8.13652 9.50199 8.46492 8.07639C8.68142 7.13653 8.89792 6.66912 8.46492 5.3701M12.5785 10.9992C11.7966 8.9741 11.8268 8.1545 12.5785 5.80311C13.1322 4.07108 13.0115 2.77206 12.5785 1.04004M16.259 10.9992C15.4783 9.22276 15.5503 8.66205 16.259 6.88563C16.6909 5.80311 16.692 4.9371 16.259 3.20507" stroke="#2E3338" stroke-width="1.2"/>
</svg>
