<svg width="32" height="32" viewBox="0 0 32 32" fill="none" xmlns="http://www.w3.org/2000/svg">
<path d="M15.998 24.7279H13.821C13.5542 24.7279 13.3341 24.5114 13.3495 24.245C13.3894 23.5585 13.5487 23.069 14.0635 22.3098C14.0635 22.3098 6.91636 18.7363 6.81041 10.6433M15.998 24.7279H18.162C18.4338 24.7279 18.6545 24.5033 18.6345 24.2322C18.5627 23.2587 18.3482 22.8502 17.9324 22.3098C17.9324 22.3098 24.9449 18.4409 25.1867 10.4612C25.3404 5.38873 21.0728 1.27246 15.998 1.27246C12.9728 1.27246 10.2891 2.73432 8.61479 4.99016M15.998 24.7279V31.831M8.61479 4.99016L7.32256 1.71481C7.22594 1.46991 6.87934 1.46991 6.78272 1.71481L5.3833 5.26185L1.57743 5.49668C1.31465 5.51289 1.20755 5.84253 1.41061 6.0101L4.3516 8.43712L3.39413 12.1476C3.32898 12.4 3.604 12.6037 3.82646 12.4676L6.81041 10.6433M8.61479 4.99016L8.72198 5.26185L12.5278 5.49668C12.7906 5.51289 12.8977 5.84253 12.6947 6.0101L9.75368 8.43712L10.7078 12.1344C10.7734 12.3887 10.4945 12.5924 10.2722 12.4525L7.10818 10.4612L6.81041 10.6433M27.4545 24.6381L26.3646 21.8755C26.2893 21.6847 26.0194 21.6847 25.9441 21.8755L24.8542 24.6381L21.8899 24.821C21.6852 24.8336 21.6018 25.0904 21.76 25.2209L24.0506 27.1112L23.3085 29.9869C23.2573 30.1854 23.4757 30.3441 23.6487 30.234L26.1543 28.6397L28.66 30.234C28.833 30.3441 29.0514 30.1854 29.0001 29.9869L28.2581 27.1112L30.5487 25.2209C30.7068 25.0904 30.6234 24.8336 30.4188 24.821L27.4545 24.6381Z" stroke="#2E3338" stroke-width="1.2"/>
</svg>
