<svg width="32" height="31" viewBox="0 0 32 31" fill="none" xmlns="http://www.w3.org/2000/svg">
<path d="M7.5226 16.7243C7.69149 18.5655 6.41904 20.1772 4.58894 20.4403C2.5034 20.74 0.554372 18.8277 0.677406 16.7243C0.787829 14.8365 2.30754 13.3455 4.19779 13.3995C6.03328 13.452 7.47015 14.8888 7.5226 16.7243ZM7.5226 16.7243C7.5226 12.5999 7.5226 6.16316 7.5226 6.16316M7.5226 6.16316V1.03367C7.5226 0.867632 7.69034 0.754278 7.84279 0.820066C9.18806 1.4006 10.3651 2.18766 11.6364 3.39034C12.5511 4.25562 12.9986 5.49115 12.9986 6.75026V11.6393C11.2016 8.56693 9.89692 7.82736 7.5226 6.16316ZM17.6924 26.5657C17.8613 28.4069 16.5889 30.0186 14.7588 30.2816C12.6732 30.5814 10.7242 28.6691 10.8472 26.5657C10.9576 24.6779 12.4774 23.1869 14.3676 23.2409C16.2031 23.2933 17.64 24.7302 17.6924 26.5657ZM17.6924 26.5657V16.0045M30.4049 11.0526C30.4049 8.29006 30.4049 6.6429 30.4049 4.75299C30.4049 4.65932 30.3494 4.60695 30.2604 4.63617C28.8503 5.09908 17.6924 9.61019 17.6924 9.76669V16.0045M30.4049 11.0526C29.2314 11.4437 20.8216 14.7685 17.6924 16.0045M30.4049 11.0526V21.8093M30.4049 21.8093C30.5738 23.6505 29.3014 25.2622 27.4713 25.5253C25.3857 25.825 23.4367 23.9127 23.5597 21.8093C23.6701 19.9215 25.1899 18.4305 27.0801 18.4845C28.9156 18.5369 30.3525 19.9738 30.4049 21.8093Z" stroke="#2E3338" stroke-width="1.2"/>
</svg>
