<svg width="23" height="35" viewBox="0 0 23 35" fill="none" xmlns="http://www.w3.org/2000/svg">
<path fill-rule="evenodd" clip-rule="evenodd" d="M17.9134 7.53438L20.3058 3.24657L21.0013 2.00019C21.1642 2.24922 21.4248 2.78853 21.6503 3.29983C21.8174 3.67889 21.9651 4.04254 22.0394 4.2611C23.1553 7.54556 21.3974 11.1128 18.113 12.2287C17.4792 12.4441 16.8349 12.5524 16.1997 12.5634C16.1997 12.5634 9.42135 26.2378 6.52946 31.827C5.14632 34.5002 3.60269 34.5002 1.67313 33.5002C-0.256437 32.5002 -0.224726 30.6188 0.329967 29.5397C3.65813 23.0652 10.0455 10.0234 10.0455 10.0234C9.66726 9.51297 9.36066 8.93605 9.14533 8.30229C8.02939 5.01783 9.78732 1.45061 13.0718 0.334663C13.3676 0.234156 13.819 0.157002 14.2809 0.102179C14.8087 0.0395477 15.3501 0.00606018 15.6888 0.000190923L15.043 1.23398L13.0718 5.00019L14.5013 8.30229L17.9134 7.53438ZM13.5836 1.43455C13.5349 1.44683 13.4928 1.459 13.4578 1.47087C10.8009 2.37361 9.37881 5.2593 10.2815 7.91625C10.4564 8.43088 10.7045 8.89722 11.0096 9.30893L11.4443 9.89551L11.1232 10.5512L10.0455 10.0234C11.1232 10.5512 11.1231 10.5512 11.1231 10.5513L11.1229 10.5518L11.122 10.5536L11.1185 10.5607L11.1047 10.589L11.0505 10.6996L10.8419 11.1249C10.6606 11.4945 10.3979 12.0295 10.0724 12.6917C9.42123 14.0162 8.51837 15.8497 7.51141 17.8856C5.49866 21.9552 3.06604 26.8419 1.39722 30.0883C1.23255 30.4087 1.14563 30.8628 1.24081 31.2868C1.32544 31.6638 1.56825 32.0943 2.22528 32.4348C3.11929 32.8981 3.64697 32.9731 4.00268 32.8801C4.3256 32.7956 4.8405 32.4799 5.46367 31.2755C6.90504 28.4898 9.31883 23.6815 11.3755 19.5631C12.4031 17.5053 13.3404 15.622 14.0209 14.2532C14.3611 13.5688 14.637 13.013 14.8279 12.6284L15.0479 12.1851L15.1051 12.0697L15.1197 12.0403L15.1234 12.0329L15.1243 12.0311L15.1245 12.0306C15.1246 12.0305 15.1246 12.0304 16.1997 12.5634L15.1246 12.0304L15.4489 11.3762L16.179 11.3636C16.6913 11.3547 17.2123 11.2674 17.7269 11.0925C20.3839 10.1898 21.8059 7.30409 20.9032 4.64715C20.9026 4.64543 20.902 4.6437 20.9014 4.64196L18.9614 8.11907L18.7001 8.58736L18.1769 8.7051L14.7647 9.47301L13.7949 9.69126L13.4 8.77902L11.9705 5.47692L11.743 4.95124L12.0086 4.44373L13.5836 1.43455Z" fill="#2E3338"/>
</svg>
