<svg width="29" height="31" viewBox="0 0 29 31" fill="none" xmlns="http://www.w3.org/2000/svg">
<path d="M12.9584 11.3617C11.4518 7.5073 9.63434 5.80851 7.02041 4.72864C6.64679 4.57429 6.25205 4.87506 6.25891 5.27925C6.30451 7.96689 5.61889 10.3487 4.04444 12.9087C2.36681 15.6365 0.999882 16.8176 1 20.3049C1.00009 22.9154 1.89546 25.0907 2.95665 26.3959C4.265 28.0051 6.65476 29.2239 8.83128 29.4414H11.1882M15.3567 19.8699C15.3567 19.8699 16.6619 19.2173 18.4022 19.2173C19.6054 19.2173 20.6779 19.692 21.4484 20.492M11.1882 29.4414C11.1882 29.4414 19.9196 29.4414 24.9289 29.4414C25.5436 29.4414 26.576 29.4414 26.8505 28.4807C27.2251 27.1695 26.3436 25.9188 25.3519 25.6709C23.8533 25.2962 22.101 26.3959 22.101 26.3959C22.101 26.3959 22.9705 24.2206 22.5354 22.4804C22.3409 21.7026 21.9617 21.0251 21.4484 20.492M11.1882 29.4414C9.99147 28.2934 8.98568 27.1695 8.17868 25.7433C7.42875 24.418 6.87283 23.1329 6.87283 21.6101C6.87283 20.0874 6.87283 18.3471 8.17868 16.3893C9.15186 14.9302 9.99084 13.9964 11.006 13.1262C12.5288 11.821 13.4911 10.9958 14.9216 8.99307C16.0093 7.47032 16.7648 5.14757 17.5321 3.77221C18.5054 2.02743 19.4905 0.944336 19.4905 0.944336C19.4905 0.944336 20.1425 1.75194 21.2302 2.68462C22.3179 3.61731 24.2497 4.45104 25.3634 5.51258C27.103 7.03533 27.3212 8.77562 27.1036 9.64576C26.8861 10.5159 26.016 11.386 24.9283 11.386C23.8406 11.386 21.4484 11.386 21.4484 11.386C21.0677 12.1758 21.0318 13.8824 21.25 14.4443C21.4682 15.0063 22.0371 15.6685 22.875 15.8083C24.1796 16.0259 24.9283 15.5909 26.4517 15.8083C27.1751 15.9116 27.8978 16.6665 27.9744 17.1559C28.051 17.6453 27.9744 18.2951 27.4125 18.6545C26.8505 19.0139 25.8454 18.7933 24.9283 18.8418C23.7377 18.9048 22.5354 19.2481 22.5354 19.2481C21.2302 19.6366 21.4484 20.3263 21.4484 20.492M21.0435 12.5583H21.2308C21.2797 12.6843 21.3412 12.8109 21.4165 12.933C21.6771 13.3555 22.1041 13.7248 22.7542 13.8332C24.0588 14.0509 24.9289 13.6158 26.4523 13.8332C27.1758 13.9365 27.8984 14.6915 27.9751 15.1808C28.0159 15.4417 28.0132 15.7481 27.9167 16.0319C27.8201 16.3156 27.4808 16.5213 27.4808 16.5213" stroke="#2E3338" stroke-width="1.2"/>
</svg>
