<svg width="31" height="27" viewBox="0 0 31 27" fill="none" xmlns="http://www.w3.org/2000/svg">
<path d="M4.57792 17.0065H16.0649M4.57792 13.0519H16.0649M6.08442 8.15584H3.63636C2.18034 8.15584 1 9.33619 1 10.7922V10.7922V19.6429V19.6429C1 20.9949 2.09603 22.0909 3.44805 22.0909H3.63636V25.2922L9.66234 22.0909H17.3831C18.7351 22.0909 19.8312 20.9949 19.8312 19.6429V19.6429V17.9481M6.08442 8.15584H17.1948C18.6508 8.15584 19.8312 9.33619 19.8312 10.7922V10.7922M6.08442 8.15584V4.01299V4.01299C6.08442 2.34896 7.43338 1 9.0974 1H26.987C28.651 1 30 2.34896 30 4.01299V4.01299V14.3701V14.3701C30 16.0342 28.651 17.3831 26.987 17.3831H26.6104V22.0909L19.8312 17.9481M19.8312 17.9481V10.7922M10.2273 5.8961H26.0455M19.8312 10.7922H26.0455" stroke="#2E3338" stroke-width="1.2"/>
</svg>
