<svg width="347" height="305" viewBox="0 0 347 305" fill="none" xmlns="http://www.w3.org/2000/svg">
<path fill-rule="evenodd" clip-rule="evenodd" d="M346.996 30C346.996 13.4315 333.565 0 316.996 0H213.996C197.428 0 183.996 13.4315 183.996 30V30.0932C183.999 30.2284 184 30.3639 184 30.4998C184 30.6356 183.999 30.7712 183.996 30.9064V31.7188H183.965C183.334 42.6057 174.305 51.2398 163.26 51.2398H49.881L49.8808 51.2401H30C13.4315 51.2401 0 64.6716 0 81.2401V98.3213V148.34V206.68V206.68V222.04V243.281V271.56V274.5V275C0 291.569 13.4315 305 30 305H133C149.569 305 163 291.569 163 275V274.907C162.997 274.772 162.996 274.636 162.996 274.5C162.996 274.364 162.997 274.229 163 274.094V273.281H163.031C163.662 262.394 172.691 253.76 183.736 253.76H297.119L297.119 253.76H316.996C333.565 253.76 346.996 240.328 346.996 223.76V218.148C346.999 217.985 347 217.822 347 217.659V206.68V148.34V61.7188C347 61.5554 346.999 61.3924 346.996 61.2297V33.44V30.5V30Z" fill="#231F20"/>
<path d="M96.1838 149.585C85.4288 149.585 79.0388 143.51 79.0388 133.115C79.0388 122.945 85.3388 116.915 96.4988 116.915C104.689 116.915 108.784 120.515 109.819 125.645L103.429 126.32C102.664 123.125 100.639 121.145 96.4988 121.145C90.5588 121.145 86.6438 125.105 86.6438 132.935C86.6438 140.945 90.6038 144.95 96.4538 144.95C101.044 144.95 103.474 142.835 105.004 139.01L110.899 140.9C108.874 145.85 104.509 149.585 96.1838 149.585ZM114.917 149V126.5H120.992V135.365H133.412V126.5H139.487V149H133.412V139.235H120.992V149H114.917ZM144.8 149V126.5H150.785V143.105H150.83L163.52 126.5H169.955V149H163.97V132.395H163.925L151.235 149H144.8ZM175.21 149V126.5H183.175L191.635 141.8H191.68L200.275 126.5H208.24V149H202.3V131.405H202.255L192.58 149H189.43L179.845 131.405H179.8V149H175.21ZM220.505 149.54C215.06 149.54 212.225 146.975 212.225 143.24C212.225 139.46 215.015 136.625 223.025 136.04L230.945 135.41V133.565C230.945 130.955 229.55 129.515 226.22 129.515C222.935 129.515 221.18 130.865 219.92 132.89L214.475 131.81C216.05 128.66 219.245 125.915 226.49 125.915C234.185 125.915 237.065 129.02 237.065 133.745V144.77C237.065 146.705 237.335 147.92 237.83 149H231.62C231.35 148.415 231.125 147.605 231.125 146.66C231.125 146.075 231.215 145.355 231.26 144.815C229.505 146.75 226.13 149.54 220.505 149.54ZM222.98 145.805C226.58 145.805 229.505 143.78 230.945 142.205V138.2L223.79 138.83C219.965 139.19 218.615 140.585 218.615 142.52C218.615 144.41 219.965 145.805 222.98 145.805ZM242.051 149V126.5H248.036V143.105H248.081L260.771 126.5H267.206V149H261.221V132.395H261.176L248.486 149H242.051ZM254.651 123.665C248.576 123.665 245.696 120.965 245.066 117.5H250.196C250.601 119.66 251.996 121.055 254.651 121.055C257.261 121.055 258.656 119.66 258.971 117.5H264.056C263.471 120.965 260.771 123.665 254.651 123.665ZM109.161 194V175.64H100.251V171.5H124.146V175.64H115.281V194H109.161ZM128.013 203V171.5H133.998C133.998 172.94 133.908 174.38 133.818 175.91C135.393 173.525 138.633 170.915 143.538 170.915C149.883 170.915 154.203 175.235 154.203 182.48C154.203 190.175 149.793 194.585 143.043 194.585C138.363 194.585 135.348 192.47 133.908 190.535C133.998 192.605 134.088 194.9 134.088 197.24V203H128.013ZM141.333 190.76C145.068 190.76 147.543 188.285 147.543 182.57C147.543 177.35 145.113 174.875 141.468 174.875C137.328 174.875 133.728 178.025 133.728 182.885C133.728 187.88 137.148 190.76 141.333 190.76ZM157.988 198.23C162.623 198.23 163.928 197.24 164.963 195.35L165.548 194.045L155.288 171.5H161.903L168.923 188.51L175.808 171.5H181.478L170.768 195.395C168.428 200.615 165.323 203 159.788 203H158.753L157.988 198.23ZM195.892 194.585C187.117 194.585 182.122 189.815 182.122 182.84C182.122 175.685 187.072 170.915 196.207 170.915C203.452 170.915 206.782 174.155 207.502 177.935L201.697 178.61C201.157 176.27 199.492 174.605 196.207 174.605C191.752 174.605 189.007 177.395 189.007 182.615C189.007 187.745 191.797 190.535 196.207 190.535C199.717 190.535 201.742 188.87 202.957 185.9L208.357 187.385C206.692 191.3 203.092 194.585 195.892 194.585ZM211.992 194V171.5H218.067V179.915H226.707C233.097 179.915 236.022 182.84 236.022 186.8C236.022 190.895 232.962 194 226.707 194H211.992ZM225.537 190.265C228.417 190.265 229.812 188.87 229.812 186.8C229.812 184.865 228.507 183.56 225.537 183.56H218.067V190.265H225.537ZM239.217 194V171.5H245.382V194H239.217Z" fill="white"/>
</svg>
