<svg width="264" height="233" viewBox="0 0 264 233" fill="none" xmlns="http://www.w3.org/2000/svg">
<path fill-rule="evenodd" clip-rule="evenodd" d="M263.828 148.069L263.828 147.958V67.9031C263.828 55.3105 253.62 45.1021 241.027 45.1021L180.478 45.1021L180.478 45.1016L125.228 45.1016C112.888 45.1016 102.838 35.2994 102.439 23.0568H102.419C102.372 10.5044 92.1821 0.343262 79.6186 0.343262L22.8929 0.343262C10.3002 0.343262 0.0919189 10.5516 0.0919189 23.1443V53.0308C0.0919189 53.2044 0.0938721 53.3775 0.0977173 53.5502V67.6707C0.0969543 67.7481 0.0965576 67.8255 0.0965576 67.9031V167.266C0.0965576 179.859 10.3048 190.067 22.8975 190.067H43.5139L43.514 190.068H74.3495C86.0079 190.068 95.6227 198.818 96.9851 210.109H97.1619C97.5608 222.352 107.611 232.154 119.951 232.154L241.027 232.154C253.62 232.154 263.828 221.945 263.828 209.353V187.419L263.828 187.308V148.069Z" fill="#231F20"/>
<path d="M47.9246 113.427V89.4857H71.3184V113.427H66.2566V92.9401H52.9865V113.427H47.9246ZM85.0145 113.871C78.3453 113.871 74.5489 110.212 74.5489 104.945C74.5489 99.4726 78.2426 95.8814 85.0145 95.8814C91.7522 95.8814 95.446 99.4726 95.446 104.74C95.446 110.212 91.6838 113.871 85.0145 113.871ZM85.0145 110.964C88.2979 110.964 90.3842 108.844 90.3842 104.705C90.3842 100.772 88.2979 98.6859 85.0145 98.6859C81.697 98.6859 79.6107 100.772 79.6107 104.911C79.6107 108.844 81.7312 110.964 85.0145 110.964ZM98.4538 113.427V96.326H104.508L110.937 107.955H110.972L117.504 96.326H123.558V113.427H119.043V100.054H119.009L111.656 113.427H109.262L101.977 100.054H101.942V113.427H98.4538ZM137.018 113.871C130.349 113.871 126.552 110.212 126.552 104.945C126.552 99.4726 130.246 95.8814 137.018 95.8814C143.756 95.8814 147.45 99.4726 147.45 104.74C147.45 110.212 143.687 113.871 137.018 113.871ZM137.018 110.964C140.301 110.964 142.388 108.844 142.388 104.705C142.388 100.772 140.301 98.6859 137.018 98.6859C133.701 98.6859 131.614 100.772 131.614 104.911C131.614 108.844 133.735 110.964 137.018 110.964ZM146.667 113.427L156.346 104.192L147.796 96.326H152.55L160.621 104.124C160.553 103.03 160.519 101.73 160.519 100.704V96.326H165.136V100.704C165.136 101.73 165.102 103.03 165.033 104.124L173.071 96.326H177.825L169.308 104.192L178.987 113.427H173.173L165.033 105.424C165.102 106.518 165.136 107.818 165.136 108.912V113.427H160.519V108.912C160.519 107.818 160.553 106.518 160.621 105.424L152.481 113.427H146.667ZM188.996 113.871C181.984 113.871 178.222 110.28 178.222 104.842C178.222 99.4726 181.984 95.8814 188.585 95.8814C194.673 95.8814 198.025 99.0621 198.025 104.842V105.56H183.318C183.592 108.946 185.575 110.862 189.098 110.862C191.937 110.862 193.271 109.665 194.194 108.16L198.127 109.22C196.999 111.375 194.399 113.871 188.996 113.871ZM193.476 103.303C193.271 100.157 191.595 98.5491 188.722 98.5491C185.61 98.5491 183.66 100.225 183.352 103.303H193.476ZM205.902 113.427V99.4726H199.13V96.326H217.291V99.4726H210.553V113.427H205.902ZM46.2665 147.427V130.326H50.8153V142.946H50.8495L60.4944 130.326H65.3852V147.427H60.8364V134.806H60.8022L51.1573 147.427H46.2665ZM77.8612 147.871C71.6023 147.871 69.0714 145.785 68.0112 143.152L72.0812 142.16C72.7994 143.801 74.3043 145.135 77.7586 145.135C81.1104 145.135 82.2732 143.938 82.2732 142.331C82.2732 140.826 81.3156 139.902 78.9557 139.902H74.3043V137.201H78.9215C80.8025 137.201 81.6576 136.311 81.6576 134.943C81.6576 133.541 80.6315 132.549 77.485 132.549C74.4069 132.549 73.3808 133.473 72.7994 134.977L68.9004 134.464C69.5845 132.07 71.8076 129.881 77.8612 129.881C84.3595 129.881 86.48 132.139 86.48 134.635C86.48 136.551 85.2487 137.782 83.6413 138.363C85.4197 138.808 87.164 140.073 87.164 142.536C87.164 145.375 84.8041 147.871 77.8612 147.871ZM99.6604 147.871C92.9911 147.871 89.1947 144.212 89.1947 138.945C89.1947 133.473 92.8885 129.881 99.6604 129.881C106.398 129.881 110.092 133.473 110.092 138.74C110.092 144.212 106.33 147.871 99.6604 147.871ZM99.6604 144.964C102.944 144.964 105.03 142.844 105.03 138.705C105.03 134.772 102.944 132.686 99.6604 132.686C96.3428 132.686 94.2565 134.772 94.2565 138.911C94.2565 142.844 96.377 144.964 99.6604 144.964ZM111.464 143.733C114.577 143.528 115.5 142.604 115.808 136.893L116.116 130.326H132.635V147.427H128.018V133.336H119.741L119.57 137.372C119.194 145.272 116.902 147.564 112.935 147.564C112.49 147.564 112.012 147.495 112.012 147.495L111.464 143.733ZM146.394 147.871C139.383 147.871 135.621 144.28 135.621 138.842C135.621 133.473 139.383 129.881 145.984 129.881C152.071 129.881 155.423 133.062 155.423 138.842V139.56H140.717C140.99 142.946 142.974 144.862 146.497 144.862C149.335 144.862 150.669 143.665 151.593 142.16L155.526 143.22C154.397 145.375 151.798 147.871 146.394 147.871ZM150.874 137.303C150.669 134.157 148.993 132.549 146.12 132.549C143.008 132.549 141.059 134.225 140.751 137.303H150.874ZM158.457 147.427V130.326H163.074V137.064H172.514V130.326H177.131V147.427H172.514V140.005H163.074V147.427H158.457ZM186.88 147.427V133.473H180.108V130.326H198.269V133.473H191.532V147.427H186.88ZM205.307 147.837C201.169 147.837 199.014 145.888 199.014 143.049C199.014 140.176 201.135 138.021 207.223 137.577L213.242 137.098V135.696C213.242 133.712 212.182 132.618 209.651 132.618C207.154 132.618 205.82 133.644 204.863 135.183L200.724 134.362C201.921 131.968 204.35 129.881 209.856 129.881C215.705 129.881 217.894 132.241 217.894 135.832V144.212C217.894 145.682 218.099 146.606 218.475 147.427H213.755C213.55 146.982 213.379 146.367 213.379 145.648C213.379 145.204 213.447 144.656 213.482 144.246C212.148 145.717 209.583 147.837 205.307 147.837ZM207.188 144.998C209.925 144.998 212.148 143.459 213.242 142.262V139.218L207.804 139.697C204.897 139.971 203.871 141.031 203.871 142.502C203.871 143.938 204.897 144.998 207.188 144.998Z" fill="white"/>
</svg>
