<svg width="264" height="233" viewBox="0 0 264 233" fill="none" xmlns="http://www.w3.org/2000/svg">
<path fill-rule="evenodd" clip-rule="evenodd" d="M225.879 39.2877H240.989C253.582 39.2877 263.79 49.496 263.79 62.0886V74.4306C263.796 74.643 263.799 74.8561 263.799 75.0699V170.408C263.799 183.001 253.59 193.209 240.998 193.209H225.888L225.888 193.21H139.718C131.323 193.21 124.462 199.772 123.982 208.046H123.957V208.711C123.956 208.781 123.955 208.852 123.955 208.922L123.955 208.973C123.955 209.061 123.956 209.148 123.957 209.235V209.353C123.957 221.945 113.749 232.154 101.156 232.154H22.8727C10.2801 232.154 0.0717316 221.945 0.0717316 209.353V208.045H0.0645279V171.883H0.0679169V158.085C0.0617154 157.866 0.0585938 157.647 0.0585938 157.427V47.2522C0.0585938 47.1154 0.0597839 46.979 0.0621948 46.8428V26.1684C0.0597839 26.0322 0.0585938 25.8957 0.0585938 25.759V23.1445C0.0585938 10.5518 10.2669 0.343491 22.8596 0.343491H101.143C113.736 0.343491 123.944 10.5518 123.944 23.1445V23.3453C123.943 23.4048 123.943 23.4644 123.943 23.524C123.943 23.5836 123.943 23.6432 123.944 23.7027V24.4512H123.97C124.45 32.7254 131.312 39.2871 139.706 39.2871H225.879L225.879 39.2877Z" fill="#231F20"/>
<path d="M73.719 113.427V89.4857H81.1065L90.0673 106.86L99.3359 89.4857H106.45V113.427H101.456V93.7951H101.422L91.0591 113.427H87.9468L77.9258 93.7951H77.8916V113.427H73.719ZM120.435 113.871C113.424 113.871 109.662 110.28 109.662 104.842C109.662 99.4726 113.424 95.8814 120.025 95.8814C126.113 95.8814 129.464 99.0621 129.464 104.842V105.56H114.758C115.031 108.946 117.015 110.862 120.538 110.862C123.377 110.862 124.71 109.665 125.634 108.16L129.567 109.22C128.438 111.375 125.839 113.871 120.435 113.871ZM124.916 103.303C124.71 100.157 123.035 98.5491 120.162 98.5491C117.049 98.5491 115.1 100.225 114.792 103.303H124.916ZM132.498 113.427V96.326H137.115V103.064H146.555V96.326H151.172V113.427H146.555V106.005H137.115V113.427H132.498ZM159.451 106.415C156.578 105.868 154.902 104.124 154.902 101.73C154.902 98.6517 157.194 96.326 161.811 96.326H173.337V113.427H168.719V106.997H163.692L159.348 113.427H154.047L159.451 106.415ZM162.803 104.295H168.719V99.1647H162.803C160.716 99.1647 159.622 100.225 159.622 101.764C159.622 103.303 160.648 104.295 162.803 104.295ZM177.354 113.427V96.326H181.903V108.946H181.937L191.582 96.326H196.473V113.427H191.924V100.806H191.89L182.245 113.427H177.354ZM186.93 94.1713C182.313 94.1713 180.124 92.1192 179.645 89.4857H183.544C183.852 91.1274 184.913 92.1876 186.93 92.1876C188.914 92.1876 189.974 91.1274 190.214 89.4857H194.078C193.634 92.1192 191.582 94.1713 186.93 94.1713ZM71.3428 147.427V130.326H75.96V134.533C75.96 135.593 75.8916 136.927 75.8574 138.021H75.8916L84.3393 130.326H89.367L80.2694 138.227L90.564 147.427H84.442L75.8916 139.526H75.8574C75.8916 140.621 75.96 141.955 75.96 143.186V147.427H71.3428ZM100.255 147.871C93.5852 147.871 89.7889 144.212 89.7889 138.945C89.7889 133.473 93.4826 129.881 100.255 129.881C106.992 129.881 110.686 133.473 110.686 138.74C110.686 144.212 106.924 147.871 100.255 147.871ZM100.255 144.964C103.538 144.964 105.624 142.844 105.624 138.705C105.624 134.772 103.538 132.686 100.255 132.686C96.937 132.686 94.8507 134.772 94.8507 138.911C94.8507 142.844 96.9712 144.964 100.255 144.964ZM112.059 143.733C115.171 143.528 116.094 142.604 116.402 136.893L116.71 130.326H133.229V147.427H128.612V133.336H120.335L120.164 137.372C119.788 145.272 117.497 147.564 113.529 147.564C113.085 147.564 112.606 147.495 112.606 147.495L112.059 143.733ZM146.988 147.871C139.977 147.871 136.215 144.28 136.215 138.842C136.215 133.473 139.977 129.881 146.578 129.881C152.666 129.881 156.017 133.062 156.017 138.842V139.56H141.311C141.584 142.946 143.568 144.862 147.091 144.862C149.929 144.862 151.263 143.665 152.187 142.16L156.12 143.22C154.991 145.375 152.392 147.871 146.988 147.871ZM151.469 137.303C151.263 134.157 149.587 132.549 146.715 132.549C143.602 132.549 141.653 134.225 141.345 137.303H151.469ZM168.824 147.871C162.155 147.871 158.359 144.246 158.359 138.945C158.359 133.507 162.121 129.881 169.064 129.881C174.57 129.881 177.101 132.344 177.648 135.217L173.236 135.73C172.826 133.951 171.561 132.686 169.064 132.686C165.678 132.686 163.592 134.806 163.592 138.774C163.592 142.673 165.712 144.793 169.064 144.793C171.732 144.793 173.271 143.528 174.194 141.27L178.298 142.399C177.033 145.375 174.297 147.871 168.824 147.871ZM186.262 147.837C182.124 147.837 179.969 145.888 179.969 143.049C179.969 140.176 182.09 138.021 188.178 137.577L194.197 137.098V135.696C194.197 133.712 193.137 132.618 190.606 132.618C188.109 132.618 186.775 133.644 185.818 135.183L181.679 134.362C182.876 131.968 185.305 129.881 190.811 129.881C196.66 129.881 198.849 132.241 198.849 135.832V144.212C198.849 145.682 199.054 146.606 199.43 147.427H194.71C194.505 146.982 194.334 146.367 194.334 145.648C194.334 145.204 194.402 144.656 194.437 144.246C193.103 145.717 190.538 147.837 186.262 147.837ZM188.143 144.998C190.88 144.998 193.103 143.459 194.197 142.262V139.218L188.759 139.697C185.852 139.971 184.826 141.031 184.826 142.502C184.826 143.938 185.852 144.998 188.143 144.998Z" fill="white"/>
</svg>
