<svg width="40" height="40" viewBox="0 0 40 40" fill="none" xmlns="http://www.w3.org/2000/svg">
<path d="M39 20C39 29.2526 31.0807 37 21 37C10.9193 37 3 29.2526 3 20C3 10.7474 10.9193 3 21 3C31.0807 3 39 10.7474 39 20Z" fill="white" stroke="#2B2B2B" stroke-width="6"/>
<path d="M35.6858 18.7551C35.6974 18.7551 35.7081 18.7551 35.7197 18.7551C36.073 18.7551 36.4088 18.6118 36.6446 18.3614C36.8878 18.1023 36.9995 17.7542 36.9482 17.41C35.9307 10.4688 30.126 4.95852 22.8331 4.01034C22.4724 3.96545 22.1143 4.06783 21.8438 4.29542C21.5732 4.52302 21.4202 4.85299 21.4243 5.19635C21.5716 16.4178 23.7042 18.4456 35.6858 18.7551ZM35.6866 20.4436C23.7025 20.7468 21.5699 22.7747 21.4243 34.0039C21.4202 34.3481 21.5732 34.6765 21.8438 34.9041C22.0712 35.0962 22.3649 35.2002 22.6652 35.2002C22.7206 35.2002 22.7769 35.197 22.8331 35.1892C30.1276 34.241 35.9323 28.7299 36.9482 21.7879C36.9995 21.4437 36.8878 21.0964 36.6446 20.8373C36.4005 20.5783 36.0481 20.4263 35.6866 20.4436ZM5.47202 20.4373C5.10969 20.42 4.75812 20.572 4.51574 20.831C4.27254 21.0901 4.16169 21.4374 4.21215 21.7808C5.22551 28.7268 11.0302 34.2402 18.328 35.1892C18.3843 35.1963 18.4405 35.2002 18.4959 35.2002C18.7962 35.2002 19.0899 35.0962 19.3174 34.9041C19.5879 34.6765 19.7409 34.3481 19.7368 34.0039C19.5912 22.7565 17.4578 20.7279 5.47202 20.4373ZM18.328 4.01113C11.0302 4.96009 5.22551 10.4735 4.21215 17.4195C4.16169 17.7636 4.27254 18.1102 4.51574 18.3693C4.75068 18.6205 5.08736 18.763 5.44059 18.763C5.45134 18.763 5.46127 18.763 5.47202 18.763C17.4578 18.4724 19.5912 16.4438 19.7368 5.19635C19.7409 4.8522 19.5879 4.52381 19.3174 4.29621C19.0477 4.06941 18.6912 3.96624 18.328 4.01113Z" fill="#2B2B2B"/>
</svg>
