<svg width="32" height="32" viewBox="0 0 32 32" fill="none" xmlns="http://www.w3.org/2000/svg">
<rect width="32" height="32" rx="16" fill="#2E3338"/>
<path d="M17.1022 21.9626L18.872 23L17.1022 21.9626ZM12.5944 8.8965L13.0844 10.8886L13.0844 10.8886L12.5944 8.8965ZM12.0459 11.4444V21.7666H16.1489V11.4444H12.0459ZM12.0459 21.7666C12.0459 22.3575 12.1457 23.0099 12.3681 23.6112C12.5684 24.1528 12.9947 24.991 13.8821 25.4768C14.9794 26.0777 16.1292 25.8149 16.9666 25.2424C17.7085 24.7351 18.3256 23.9321 18.872 23L15.3324 20.9251C15.1291 21.2718 14.9608 21.5087 14.832 21.6643C14.7001 21.8237 14.6363 21.8653 14.6509 21.8554C14.6678 21.8438 14.8099 21.7508 15.0645 21.7223C15.3422 21.6911 15.6226 21.7522 15.8527 21.8781C16.0598 21.9916 16.1648 22.1226 16.1988 22.1699C16.2341 22.2189 16.2327 22.2323 16.2163 22.1881C16.1805 22.0912 16.1489 21.9269 16.1489 21.7666H12.0459ZM18.872 23C21.1365 19.1371 24.1282 12.8302 25.9897 9.14214L22.3269 7.29341C20.3736 11.1634 17.5104 17.2097 15.3324 20.9251L18.872 23ZM9.70342 17.9578C10.119 17.1733 10.571 16.2788 11.0167 15.3994C11.4671 14.5108 11.9133 13.6336 12.3334 12.8485C12.759 12.0534 13.1294 11.4069 13.4263 10.9633C13.5773 10.7377 13.673 10.6196 13.7148 10.5744C13.8345 10.4452 13.6097 10.7594 13.0844 10.8886L12.1045 6.9044C11.3624 7.08691 10.8785 7.59873 10.7047 7.78641C10.453 8.05816 10.2206 8.37638 10.0165 8.68138C9.60312 9.29903 9.15553 10.0912 8.71597 10.9125C8.27101 11.7439 7.80498 12.6608 7.35709 13.5444C6.90451 14.4373 6.47202 15.293 6.07783 16.0371L9.70342 17.9578ZM13.0844 10.8886C12.9741 10.9157 12.7354 10.9423 12.4511 10.8317C12.1638 10.7198 12.0086 10.5374 11.9521 10.4507C11.9065 10.3807 11.9377 10.3961 11.9763 10.5811C12.0135 10.7591 12.0459 11.0385 12.0459 11.4444H16.1489C16.1489 10.3033 15.9853 9.1252 15.3901 8.21136C15.0662 7.71409 14.5895 7.26112 13.939 7.00801C13.2916 6.7561 12.6482 6.77066 12.1045 6.9044L13.0844 10.8886Z" fill="#F3D472"/>
</svg>
