<svg width="65" height="34" viewBox="0 0 65 34" fill="none" xmlns="http://www.w3.org/2000/svg">
<path fill-rule="evenodd" clip-rule="evenodd" d="M8.39891 15.4434C8.99242 14.2725 9.58154 13.1132 10.1491 12.0294V26.2711C10.1491 27.2761 10.3189 28.3854 10.6971 29.4081C11.0377 30.3291 11.7626 31.7544 13.2716 32.5807C15.1377 33.6025 17.093 33.1555 18.517 32.1819C19.7787 31.3192 20.8281 29.9538 21.7573 28.3687C24.6333 23.4625 28.1992 16.238 31.139 10.282L31.1391 10.2819C32.0067 8.52418 32.8197 6.8769 33.5444 5.4323L33.5655 5.43856L35.4016 1.58269H27.6741L27.6359 1.66037L27.6325 1.65863C26.7653 3.37663 25.7928 5.34684 24.763 7.4329L24.7627 7.43348L24.7627 7.43351L24.7626 7.43379C22.3242 12.3733 19.5653 17.9623 17.1264 22.3905V8.71762C17.1264 6.77716 16.8482 4.7737 15.836 3.21966C15.2852 2.37403 14.4745 1.60372 13.3684 1.1733C12.2675 0.744899 11.1734 0.769674 10.2487 0.997102C8.98669 1.30748 8.16388 2.17785 7.86826 2.49702C7.44025 2.95913 7.04499 3.50029 6.69789 4.01897C5.99498 5.06932 5.23382 6.41644 4.48633 7.81311C3.72964 9.22696 2.93713 10.7862 2.17547 12.2889L2.0265 12.5828L2.02643 12.5829L2.02643 12.5829C1.31087 13.9949 0.626956 15.3444 0 16.5278L6.16554 19.7941C6.82355 18.552 7.5352 17.1477 8.24195 15.7531L8.39891 15.4434ZM12.9777 7.24861L12.9872 7.23823C13.0621 7.15737 13.0577 7.17857 12.9777 7.24861ZM28.8269 17.3611V28.9331V32.4218H32.3155H46.2701V25.4445H35.8042V20.5787H45.5356V13.6015H35.8042V8.55211H46.2701V1.57483H36.5364L28.8269 17.3611ZM47.5531 1.57007V17.0853V28.9284V32.417H51.0417H64.9963V25.4397H54.5304V17.0853V1.57007H47.5531Z" fill="#2E3338"/>
</svg>
