<svg width="263" height="131" viewBox="0 0 263 131" fill="none" xmlns="http://www.w3.org/2000/svg">
<path fill-rule="evenodd" clip-rule="evenodd" d="M33.9851 59.1073C36.3867 54.3694 38.7705 49.6782 41.0671 45.2929V102.92C41.0671 106.987 41.7539 111.475 43.2842 115.613C44.6624 119.34 47.5959 125.107 53.7018 128.451C61.2526 132.586 69.1646 130.777 74.9264 126.837C80.032 123.347 84.2781 117.822 88.0379 111.408C99.6755 91.5554 114.104 62.3229 126 38.2228L126 38.2225L126 38.2221L126 38.2219L126.004 38.2143L126.008 38.2063C129.516 31.0992 132.803 24.4388 135.734 18.5974L135.816 18.6219L143.246 3.01965H111.978L111.823 3.33474L111.811 3.3289C108.303 10.2798 104.368 18.251 100.202 26.6909L100.201 26.6926L100.199 26.6959L100.199 26.6962C90.3326 46.6836 79.1687 69.2991 69.2998 87.2176V31.8922C69.2998 24.0404 68.1741 15.9336 64.0784 9.64542C61.8496 6.2237 58.5693 3.10674 54.0935 1.36508C49.6386 -0.368375 45.2115 -0.268125 41.4698 0.652131C36.3635 1.90802 33.0341 5.42989 31.8379 6.72134C30.106 8.59124 28.5066 10.781 27.1021 12.8797C24.2579 17.1298 21.178 22.5808 18.1533 28.2322C15.0915 33.9532 11.8847 40.2625 8.80274 46.3428L8.19997 47.5321C5.30446 53.2455 2.53698 58.7063 0 63.4952L24.9481 76.7117C27.6106 71.6859 30.4901 66.0037 33.3499 60.3606L33.35 60.3604L33.9851 59.1073ZM52.5126 25.948C52.5261 25.9331 52.5388 25.9191 52.551 25.906C52.854 25.5789 52.8362 25.6646 52.5126 25.948ZM116.648 66.8642V113.689V127.805H130.764H187.229V99.5727H144.88V79.8842H184.258V51.6515H144.88V31.22H187.229V2.9873H147.843L116.648 66.8642ZM192.419 2.97277V65.7533V113.675V127.791H206.536H263.001V99.5582H220.652V65.7533V2.97277H192.419Z" fill="#FFD95E"/>
</svg>
