<svg width="69" height="40" viewBox="0 0 69 40" fill="none" xmlns="http://www.w3.org/2000/svg">
<path fill-rule="evenodd" clip-rule="evenodd" d="M3.78854 0C1.69619 0 0 1.69619 0 3.78854V36.2006C0 38.2929 1.69619 39.9891 3.78854 39.9891H14.4268L14.4748 39.9888H22.8019C22.9045 39.996 23.0079 39.9996 23.1117 39.9996H23.1694V39.9999H32V40H34V39.9614C34.1552 39.9865 34.3171 39.9996 34.4855 39.9996C37.1946 39.9996 43.1319 36.8355 44.8732 34.7601L67.9061 7.30827C70.335 4.41342 68.2769 0 64.4981 0H36.1158C33.6588 0 31.667 1.99179 31.667 4.44879V27.3973H31.6578C31.589 28.6197 30.605 29.5891 29.4014 29.5891C28.3437 29.5891 27.4557 28.8406 27.2091 27.8297L19.11 3.06588C18.5119 1.23704 16.8058 0 14.8816 0H14.4268H4.45672H3.78854Z" fill="#231F20"/>
</svg>
