<svg width="1182" height="410" viewBox="0 0 1182 410" fill="none" xmlns="http://www.w3.org/2000/svg">
<path fill-rule="evenodd" clip-rule="evenodd" d="M911.061 148.414C927.427 157.895 944.48 168.081 961.018 177.978L965.059 180.397L965.063 180.399L965.064 180.4C984.475 192.019 1003.03 203.124 1019.63 212.656L1019.51 212.865C1046.39 228.426 1073.71 243.768 1103.36 259.666L998.832 93.8182C984.045 70.3552 972.141 44.0101 972.538 17.5058C972.753 3.08347 976.685 -12.4086 986.78 -26.0426C996.828 -39.6124 1010.25 -47.6505 1023.16 -51.9474C1040.78 -57.8113 1057.37 -53.5575 1063.37 -51.951C1072.07 -49.625 1080.97 -46.0937 1089.12 -42.4673C1105.63 -35.1234 1125.1 -24.6351 1144.78 -13.4436C1164.7 -2.11429 1186.17 10.7001 1206.83 23.0651L1210.87 25.4837L1210.87 25.4848C1230.28 37.1044 1248.84 48.2102 1265.44 57.7424L1215.78 144.222C1198.35 134.218 1179.05 122.662 1159.88 111.185L1159.87 111.184L1155.62 108.635C1139.52 98.9997 1123.56 89.4709 1108.44 80.6918L1216.97 252.896C1224.63 265.048 1231.03 279.755 1234.25 295.003C1237.15 308.734 1239.24 331.493 1227.29 352.984C1212.52 379.56 1185.47 389.055 1160.83 388.135C1139 387.319 1115.91 378.805 1092.59 366.72C1005.07 321.355 939.675 282.017 862.679 235.687L971.157 407.81C978.816 419.961 985.217 434.668 988.438 449.916C991.338 463.647 993.434 486.406 981.484 507.897C966.708 534.473 939.658 543.968 915.021 543.048C893.19 542.232 870.096 533.718 846.782 521.633C759.266 476.269 693.869 436.932 616.875 390.603L725.358 562.732C733.016 574.884 739.418 589.591 742.638 604.838C745.538 618.57 747.634 641.329 735.685 662.819C720.908 689.395 693.858 698.891 669.221 697.97C647.39 697.155 624.297 688.641 600.982 676.556C514.318 631.633 449.344 592.621 373.319 546.876L480.549 717.018C488.208 729.17 494.609 743.877 497.829 759.124C500.729 772.856 502.825 795.615 490.876 817.105C476.1 843.682 449.05 853.177 424.413 852.257C402.582 851.441 379.488 842.927 356.174 830.842C284.01 793.436 185.839 733.256 104.905 683.642L104.901 683.64L104.851 683.609L104.829 683.595L104.796 683.575C77.4035 666.783 51.9889 651.204 30.2288 638.13L81.5868 552.648C105.166 566.815 131.943 583.228 160.295 600.606L160.303 600.612L160.316 600.619C227.437 641.761 303.38 688.311 366.61 723.266L262.415 557.94C247.628 534.477 235.724 508.132 236.12 481.628C236.336 467.205 240.268 451.713 250.363 438.079C260.411 424.509 273.829 416.471 286.743 412.175C304.48 406.273 321.126 410.622 327.145 412.263C335.847 414.635 344.731 418.222 352.836 421.889C366.535 428.087 382.278 436.489 398.468 445.648L398.476 445.636L398.962 445.928C402.009 447.653 405.07 449.405 408.137 451.173C427.678 462.443 448.752 475.177 469.05 487.442L469.051 487.443L469.77 487.877C490.515 500.413 510.389 512.414 528.045 522.553L527.944 522.729C554.816 538.28 582.117 553.613 611.747 569.501L507.223 403.654C492.436 380.191 480.532 353.846 480.929 327.342C481.144 312.919 485.077 297.427 495.172 283.793C505.219 270.223 518.637 262.185 531.551 257.888C549.176 252.025 565.758 256.278 571.764 257.885C580.461 260.211 589.364 263.742 597.514 267.369C611.441 273.566 627.48 282.002 643.976 291.211L644.275 290.713C651.464 295.032 658.51 299.27 665.437 303.438C681.749 312.891 698.74 323.039 715.219 332.901L719.259 335.32L719.272 335.327L719.289 335.337L719.295 335.341C738.695 346.953 757.237 358.051 773.827 367.578L773.708 367.785C800.592 383.344 827.904 398.683 857.547 414.579L753.023 248.731C738.236 225.268 726.332 198.923 726.728 172.419C726.944 157.997 730.876 142.505 740.971 128.871C751.019 115.301 764.437 107.263 777.351 102.966C794.975 97.1018 811.557 101.356 817.564 102.962C826.261 105.288 835.164 108.819 843.314 112.446C857.244 118.645 873.287 127.083 889.787 136.295L890.084 135.8C897.21 140.081 904.193 144.282 911.061 148.414ZM890.983 471.185C890.985 471.208 890.987 471.219 890.987 471.219C890.987 471.219 890.987 471.215 890.986 471.207L890.983 471.185ZM791.993 199.353C791.925 199.334 791.86 199.316 791.799 199.3C790.277 198.893 790.492 199.116 791.993 199.353ZM301.139 508.538C301.061 508.515 300.987 508.495 300.918 508.476C299.439 508.073 299.658 508.294 301.139 508.538ZM645.184 626.108C645.185 626.121 645.186 626.13 645.187 626.136L645.186 626.134L645.185 626.121L645.184 626.108ZM546.193 354.276C546.125 354.257 546.06 354.239 545.999 354.223C544.478 353.816 544.692 354.038 546.193 354.276ZM1136.8 316.305C1136.8 316.305 1136.8 316.294 1136.79 316.272C1136.79 316.295 1136.8 316.306 1136.8 316.305ZM1037.8 44.44C1037.73 44.4208 1037.67 44.4031 1037.61 44.3868C1036.09 43.9799 1036.3 44.2025 1037.8 44.44Z" fill="#C1CDD7"/>
</svg>
