<svg width="65" height="19" viewBox="0 0 65 19" fill="none" xmlns="http://www.w3.org/2000/svg">
<path fill-rule="evenodd" clip-rule="evenodd" d="M19 9.5C19 14.7467 14.7467 19 9.5 19C4.25329 19 0 14.7467 0 9.5C0 4.25329 4.25329 0 9.5 0C14.7467 0 19 4.25329 19 9.5ZM9.25 17.7459V10.501C9.1819 10.478 9.11726 10.4475 9.05704 10.4105L4.36432 15.9565C5.71281 17.0305 7.40536 17.691 9.25 17.7459ZM3.98279 15.6333L8.7126 10.0435C8.66482 9.95331 8.63111 9.8545 8.61441 9.75H1.25411C1.32359 12.0843 2.36283 14.1751 3.98279 15.6333ZM1.25411 9.25H8.66824C8.6978 9.17488 8.73664 9.10443 8.78333 9.04006L3.98279 3.36669C2.36283 4.82487 1.32359 6.91565 1.25411 9.25ZM4.36432 3.04353L9.17263 8.72607C9.19786 8.71501 9.22367 8.705 9.25 8.69612V1.25411C7.40536 1.30902 5.71281 1.96948 4.36432 3.04353ZM9.75 17.7459V10.5307C9.8301 10.514 9.9065 10.4872 9.97783 10.4517L14.6357 15.9565C13.2872 17.0305 11.5946 17.691 9.75 17.7459ZM15.0172 15.6333C16.6372 14.1751 17.6764 12.0843 17.7459 9.75H10.4948C10.4733 9.88471 10.4235 10.01 10.3517 10.1196L15.0172 15.6333ZM10.441 9.25H17.7459C17.6764 6.91565 16.6372 4.82487 15.0172 3.36669L10.273 8.97351C10.3437 9.05474 10.4009 9.14808 10.441 9.25ZM9.85416 8.69442L14.6357 3.04353C13.2872 1.96948 11.5946 1.30902 9.75 1.25411V8.66641C9.78548 8.67381 9.82024 8.68319 9.85416 8.69442Z" fill="#2E3338"/>
<path fill-rule="evenodd" clip-rule="evenodd" d="M42 9.5C42 14.7467 37.7467 19 32.5 19C27.2533 19 23 14.7467 23 9.5C23 4.25329 27.2533 0 32.5 0C37.7467 0 42 4.25329 42 9.5ZM32.25 17.7459V10.501C32.1819 10.478 32.1173 10.4475 32.057 10.4105L27.3643 15.9565C28.7128 17.0305 30.4054 17.691 32.25 17.7459ZM26.9828 15.6333L31.7126 10.0435C31.6648 9.95331 31.6311 9.8545 31.6144 9.75H24.2541C24.3236 12.0843 25.3628 14.1751 26.9828 15.6333ZM24.2541 9.25H31.6682C31.6978 9.17488 31.7366 9.10443 31.7833 9.04006L26.9828 3.36669C25.3628 4.82487 24.3236 6.91565 24.2541 9.25ZM27.3643 3.04353L32.1726 8.72607C32.1979 8.71501 32.2237 8.705 32.25 8.69612V1.25411C30.4054 1.30902 28.7128 1.96948 27.3643 3.04353ZM32.75 17.7459V10.5307C32.8301 10.514 32.9065 10.4872 32.9778 10.4517L37.6357 15.9565C36.2872 17.0305 34.5946 17.691 32.75 17.7459ZM38.0172 15.6333C39.6372 14.1751 40.6764 12.0843 40.7459 9.75H33.4948C33.4733 9.88471 33.4235 10.01 33.3517 10.1196L38.0172 15.6333ZM33.441 9.25H40.7459C40.6764 6.91565 39.6372 4.82487 38.0172 3.36669L33.273 8.97351C33.3437 9.05474 33.4009 9.14808 33.441 9.25ZM32.8542 8.69442L37.6357 3.04353C36.2872 1.96948 34.5946 1.30902 32.75 1.25411V8.66641C32.7855 8.67381 32.8202 8.68319 32.8542 8.69442Z" fill="#2E3338"/>
<path fill-rule="evenodd" clip-rule="evenodd" d="M65 9.5C65 14.7467 60.7467 19 55.5 19C50.2533 19 46 14.7467 46 9.5C46 4.25329 50.2533 0 55.5 0C60.7467 0 65 4.25329 65 9.5ZM55.25 17.7459V10.501C55.1819 10.478 55.1173 10.4475 55.057 10.4105L50.3643 15.9565C51.7128 17.0305 53.4054 17.691 55.25 17.7459ZM49.9828 15.6333L54.7126 10.0435C54.6648 9.95331 54.6311 9.8545 54.6144 9.75H47.2541C47.3236 12.0843 48.3628 14.1751 49.9828 15.6333ZM47.2541 9.25H54.6682C54.6978 9.17488 54.7366 9.10443 54.7833 9.04006L49.9828 3.36669C48.3628 4.82487 47.3236 6.91565 47.2541 9.25ZM50.3643 3.04353L55.1726 8.72607C55.1979 8.71501 55.2237 8.705 55.25 8.69612V1.25411C53.4054 1.30902 51.7128 1.96948 50.3643 3.04353ZM55.75 17.7459V10.5307C55.8301 10.514 55.9065 10.4872 55.9778 10.4517L60.6357 15.9565C59.2872 17.0305 57.5946 17.691 55.75 17.7459ZM61.0172 15.6333C62.6372 14.1751 63.6764 12.0843 63.7459 9.75H56.4948C56.4733 9.88471 56.4235 10.01 56.3517 10.1196L61.0172 15.6333ZM56.441 9.25H63.7459C63.6764 6.91565 62.6372 4.82487 61.0172 3.36669L56.273 8.97351C56.3437 9.05474 56.4009 9.14808 56.441 9.25ZM55.8542 8.69442L60.6357 3.04353C59.2872 1.96948 57.5946 1.30902 55.75 1.25411V8.66641C55.7855 8.67381 55.8202 8.68319 55.8542 8.69442Z" fill="#2E3338"/>
</svg>
