<svg width="24" height="28" viewBox="0 0 24 28" fill="none" xmlns="http://www.w3.org/2000/svg">
<path d="M3.30469 7.58887L3.63281 11.3623M4.78125 21.2061H4.28906L2.8125 11.3623H20.3672M4.78125 21.2061L5.40341 26.4944C5.42285 26.6596 5.5629 26.7842 5.72929 26.7842H18.2621C18.4321 26.7842 18.574 26.6543 18.5889 26.4849L19.0547 21.2061M4.78125 21.2061H19.0547M19.0547 21.2061H19.7109L21.1875 11.3623H20.3672M20.3672 11.3623L20.6953 7.58887M3.30469 3.97949H1.82813C1.64691 3.97949 1.5 4.1264 1.5 4.30762V7.26074C1.5 7.44196 1.64691 7.58887 1.82812 7.58887H22.1719C22.3531 7.58887 22.5 7.44196 22.5 7.26074V4.30762C22.5 4.1264 22.3531 3.97949 22.1719 3.97949H20.5312M3.30469 3.97949V2.1748C3.30469 1.63115 3.74541 1.19043 4.28906 1.19043H19.5469C20.0905 1.19043 20.5312 1.63115 20.5312 2.1748V3.97949M3.30469 3.97949H20.5312" stroke="#2E3338" stroke-width="1.2"/>
</svg>
