<svg width="42" height="35" viewBox="0 0 42 35" fill="none" xmlns="http://www.w3.org/2000/svg">
<path fill-rule="evenodd" clip-rule="evenodd" d="M39.8559 7.50184V17.3119C39.8559 20.5784 37.3706 23.2645 34.1878 23.5823V19.0402L36.8745 16.6222L36.0717 15.7302L34.1878 17.4258V16.1762V13.828L36.8974 11.1184L36.0488 10.2699L34.1878 12.1309V9.25147H32.9878V13.5794V14.7277L31.1267 12.8666L30.2782 13.7152L32.9878 16.4248V18.773V23.5887C29.7727 23.3023 27.2522 20.6015 27.2522 17.3119V7.50183C27.2522 4.02143 30.0736 1.2 33.554 1.2C37.0345 1.2 39.8559 4.02143 39.8559 7.50184ZM32.9878 24.7927C29.1091 24.5033 26.0522 21.2646 26.0522 17.3119V7.50183C26.0522 3.35869 29.4109 0 33.554 0C37.6972 0 41.0559 3.35869 41.0559 7.50184V17.3119C41.0559 21.2416 38.0343 24.4656 34.1878 24.7874V33.7537H40.5125V34.9537H33.5878H28.3942V33.7537H32.9878V24.7927ZM10.5502 4.61372C8.28458 4.44341 6.92984 5.42204 6.16796 6.47549C5.8389 6.93049 5.62576 7.39039 5.49021 7.75941C5.44656 7.73783 5.40121 7.7161 5.35423 7.69437C4.83836 7.45575 4.10092 7.20614 3.25992 7.20614C1.14638 7.20614 -0.320508 8.99597 0.0602269 11.0874C0.251045 12.1357 0.87037 12.7092 1.46547 13C2.03303 13.2773 2.56575 13.2949 2.66757 13.2962L2.69068 13.2963L12.8013 13.3129C13.2694 13.3137 13.8029 13.1726 14.1938 12.7566C14.6351 12.2871 15.2581 11.4202 15.3975 10.1657C15.5589 8.71372 15.1559 7.37584 14.2851 6.36973C13.4153 5.36482 12.1145 4.73132 10.5502 4.61372ZM6.44959 8.76369L6.44966 8.76319L6.44988 8.76202L6.45363 8.74139C6.45745 8.72128 6.46399 8.68887 6.47393 8.64602C6.49384 8.56012 6.52711 8.43336 6.57887 8.28024C6.68309 7.97192 6.85816 7.56887 7.14032 7.17872C7.68484 6.4258 8.65435 5.67459 10.4602 5.81034C11.7492 5.90724 12.7407 6.41906 13.3777 7.15506C14.0137 7.88984 14.3321 8.88842 14.2049 10.0332C14.1033 10.9473 13.6493 11.5838 13.3194 11.9348C13.2213 12.0392 13.0492 12.1133 12.8033 12.1129L2.69266 12.0963L2.68739 12.0963L2.68408 12.0963C2.68299 12.0963 2.6825 12.0963 2.68232 12.0963H2.68225C2.65787 12.096 2.32969 12.0866 1.99226 11.9218C1.68237 11.7704 1.3526 11.4866 1.24082 10.8725C0.991347 9.50208 1.911 8.40614 3.25992 8.40614C3.86971 8.40614 4.43065 8.58932 4.85046 8.7835C5.05802 8.87951 5.2246 8.97521 5.33742 9.04557C5.39365 9.08065 5.43603 9.10912 5.46294 9.12776C5.47639 9.13707 5.48592 9.1439 5.49135 9.14783L5.49598 9.15121L5.49629 9.15145L5.49637 9.1515L5.49651 9.15161L5.49664 9.15171L6.29744 9.75658L6.4494 8.76491L6.44946 8.7645L6.44947 8.76442L6.44959 8.76369Z" fill="#2E3338"/>
</svg>
