<svg width="28" height="30" viewBox="0 0 28 30" fill="none" xmlns="http://www.w3.org/2000/svg">
<path d="M10.0047 27.2514H7.89234V29.3637H20.5664V27.2514H18.4541M10.0047 27.2514V23.0267M10.0047 27.2514H18.4541M10.0047 23.0267H18.4541M10.0047 23.0267C10.0047 23.0267 7.50746 22.7517 6.20246 22.1817C3.66763 21.0746 1.8684 18.8353 1.76652 15.6335M18.4541 27.2514V23.0267M18.4541 23.0267C18.4541 23.0267 20.4571 22.8766 21.6226 22.393C24.6704 21.1284 26.3317 18.9134 26.6923 15.6335M14.2294 12.8874H27.326V15.6335L1.13281 15.6334V12.8874H14.2294ZM14.2294 12.8874V7.60652M14.2294 1.69194C14.2294 1.69194 13.3644 0.639378 12.5395 0.63576C10.9094 0.628611 10.8496 2.74811 10.8496 2.74811M14.2294 1.69194C14.2294 1.69194 15.0943 0.635732 15.9193 0.635742C17.3979 0.63576 17.6092 2.74811 17.6092 2.74811M14.2294 1.69194V7.60652M14.2294 7.60652C14.2294 7.60652 12.962 5.91664 10.8496 5.91664C9.37098 5.91664 8.09643 7.0157 7.89234 8.24023C7.6811 9.50762 8.10357 10.3526 8.10357 10.3526M14.2294 7.60652C14.2294 7.60652 15.4968 5.91664 17.3979 5.91664C18.9324 5.91664 20.2655 6.73558 20.5664 8.24023C20.7777 9.29638 20.3552 10.3526 20.3552 10.3526" stroke="#2E3338" stroke-width="1.2"/>
</svg>
