<svg width="24" height="25" viewBox="0 0 24 25" fill="none" xmlns="http://www.w3.org/2000/svg">
<path d="M0.632812 24.1973C0.632812 24.1973 3.76927 22.2341 6.16404 19.8393C7.33734 18.666 8.84585 17.1575 8.84585 15.3138C8.84585 13.9729 7.67256 13.3024 6.49927 12.4644C5.00691 11.3984 3.89712 10.4415 3.81746 8.60926C3.7202 6.37214 6.95309 4.07858 9.68392 2.54743C11.659 1.44004 13.3714 0.731445 13.3714 0.731445M16.8913 0.731445C16.8913 0.731445 15.4627 1.48902 14.2095 2.61498C13.1778 3.54187 12.265 4.7184 12.3657 5.92745C12.5333 7.93881 14.915 8.70183 17.2265 9.27971C19.2379 9.78255 21.5552 10.7297 22.5901 12.7996C23.4282 14.4757 23.5958 16.8223 23.093 18.8337C22.4797 21.2865 20.914 24.1973 20.914 24.1973M10.2916 4.8119C10.2916 4.8119 9.00656 5.75982 8.42452 6.9494M8.15414 8.2319C8.2458 9.09365 8.61288 9.75009 9.15632 10.2603M12.0016 11.6519C11.2261 11.4413 10.4897 11.172 9.87152 10.7969M12.0016 24.1973C12.0016 24.1973 12.6204 23.5071 13.4282 22.5125M13.1336 12.0075C13.8463 12.2673 14.4615 12.5715 14.9708 12.9344M15.883 13.7894C16.3245 14.3495 16.5945 15.015 16.6771 15.8131M16.6557 17.045C16.5403 17.8541 16.2232 18.5851 15.7592 19.3469M15.1927 20.2019C14.9983 20.477 14.7889 20.7605 14.5666 21.0569C14.3788 21.3074 14.191 21.5518 14.0071 21.7867" stroke="#2E3338" stroke-width="1.2"/>
</svg>
