<svg width="22" height="29" viewBox="0 0 22 29" fill="none" xmlns="http://www.w3.org/2000/svg">
<path fill-rule="evenodd" clip-rule="evenodd" d="M15.8836 4.01164C14.9006 2.27452 13.342 1.19563 10.8911 1.20001C8.37377 1.20451 6.73576 2.06177 5.69066 3.63918C4.61219 5.26697 4.10415 7.7498 4.10288 11.1245H17.3079C17.3077 8.30653 16.8935 5.79637 15.8836 4.01164ZM4.6903 2.9764C3.41407 4.90267 2.90413 7.67688 2.90288 11.1245H2.21616C0.992207 11.1245 0 12.1167 0 13.3406V25.8988C0 27.1228 0.992208 28.115 2.21616 28.115H19.2067C20.4306 28.115 21.4229 27.1228 21.4229 25.8988V13.3406C21.4229 12.1167 20.4306 11.1245 19.2067 11.1245H18.5079C18.5077 8.22776 18.0885 5.47156 16.928 3.42065C15.7399 1.32112 13.7896 -0.00516743 10.889 1.51335e-05C8.055 0.00507885 6.00044 0.998945 4.6903 2.9764ZM19.2067 12.3245H2.21616C1.65495 12.3245 1.2 12.7794 1.2 13.3406V25.8988C1.2 26.4601 1.65495 26.915 2.21616 26.915H19.2067C19.7679 26.915 20.2229 26.4601 20.2229 25.8988V13.3406C20.2229 12.7794 19.7679 12.3245 19.2067 12.3245ZM9.09824 18.5062C9.09824 18.0023 9.26958 17.6054 9.5347 17.3372L11.3982 19.9896L11.0385 20.1431V20.5394V20.5395V20.5396V20.5397V20.5398V20.54V20.5402V20.5405V20.5408V20.5411V20.5414V20.5418V20.5422V20.5427V20.5432V20.5437V20.5442V20.5448V20.5454V20.5461V20.5467V20.5474V20.5482V20.5489V20.5497V20.5506V20.5514V20.5523V20.5533V20.5542V20.5552V20.5562V20.5573V20.5583V20.5595V20.5606V20.5618V20.563V20.5642V20.5655V20.5668V20.5681V20.5694V20.5708V20.5722V20.5737V20.5752V20.5767V20.5782V20.5798V20.5813V20.583V20.5846V20.5863V20.588V20.5897V20.5915V20.5933V20.5951V20.597V20.5988V20.6007V20.6027V20.6046V20.6066V20.6086V20.6107V20.6128V20.6149V20.617V20.6192V20.6213V20.6235V20.6258V20.628V20.6303V20.6327V20.635V20.6374V20.6398V20.6422V20.6447V20.6471V20.6496V20.6522V20.6547V20.6573V20.6599V20.6625V20.6652V20.6679V20.6706V20.6733V20.6761V20.6789V20.6817V20.6845V20.6874V20.6903V20.6932V20.6961V20.6991V20.7021V20.7051V20.7081V20.7112V20.7143V20.7174V20.7205V20.7237V20.7269V20.7301V20.7333V20.7365V20.7398V20.7431V20.7464V20.7498V20.7531V20.7565V20.7599V20.7634V20.7668V20.7703V20.7738V20.7773V20.7809V20.7845V20.788V20.7917V20.7953V20.799V20.8026V20.8063V20.8101V20.8138V20.8176V20.8214V20.8252V20.829V20.8329V20.8367V20.8406V20.8445V20.8485V20.8524V20.8564V20.8604V20.8644V20.8685V20.8725V20.8766V20.8807V20.8848V20.8889V20.8931V20.8973V20.9015V20.9057V20.9099V20.9142V20.9185V20.9227V20.9271V20.9314V20.9357V20.9401V20.9445V20.9489V20.9533V20.9578V20.9622V20.9667V20.9712V20.9757V20.9802V20.9848V20.9894V20.994V20.9986V21.0032V21.0078V21.0125V21.0171V21.0218V21.0265V21.0313V21.036V21.0408V21.0455V21.0503V21.0551V21.06V21.0648V21.0697V21.0745V21.0794V21.0843V21.0892V21.0942V21.0991V21.1041V21.1091V21.1141V21.1191V21.1241V21.1292V21.1342V21.1393V21.1444V21.1495V21.1546V21.1597V21.1649V21.17V21.1752V21.1804V21.1856V21.1908V21.1961V21.2013V21.2066V21.2118V21.2171V21.2224V21.2277V21.2331V21.2384V21.2438V21.2491V21.2545V21.2599V21.2653V21.2707V21.2761V21.2816V21.287V21.2925V21.298V21.3035V21.309V21.3145V21.32V21.3256V21.3311V21.3367V21.3423V21.3478V21.3534V21.359V21.3647V21.3703V21.3759V21.3816V21.3873V21.3929V21.3986V21.4043V21.41V21.4157V21.4214V21.4272V21.4329V21.4387V21.4444V21.4502V21.456V21.4618V21.4676V21.4734V21.4792V21.4851V21.4909V21.4968V21.5026V21.5085V21.5144V21.5203V21.5261V21.532V21.538V21.5439V21.5498V21.5557V21.5617V21.5676V21.5736V21.5796V21.5855V21.5915V21.5975V21.6035V21.6095V21.6155V21.6215V21.6276V21.6336V21.6396V21.6457V21.6517V21.6578V21.6639V21.6699V21.676V21.6821V21.6882V21.6943V21.7004V21.7065V21.7126V21.7187V21.7249V21.731V21.7371V21.7433V21.7494V21.7556V21.7617V21.7679V21.7741V21.7803V21.7864V21.7926V21.7988V21.805V21.8112V21.8174V21.8236V21.8298V21.836V21.8422V21.8484V21.8547V21.8609V21.8671V21.8734V21.8796V21.8858V21.8921V21.8983V21.9046V21.9108V21.9171V21.9233V21.9296V21.9359V21.9421V21.9484V21.9547V21.9609V21.9672V21.9735V21.9798V21.9861V21.9923V21.9986V22.0049V22.0112V22.0175V22.0238V22.0301V22.0363V22.0426V22.0489V22.0552V22.0615V22.0678V22.0741V22.0804V22.0867V22.093V22.0993V22.1056V22.1119V22.1182V22.1245V22.1308V22.1371V22.1434V22.1497V22.156V22.1623V22.1686V22.1748V22.1811V22.1874V22.1937V22.2V22.2063V22.2126V22.2189V22.2251V22.2314V22.2377V22.244V22.2502V22.2565V22.2628V22.2691V22.2753V22.2816V22.2878V22.2941V22.3004V22.3066V22.3129V22.3191V22.3253V22.3316V22.3378V22.3441V22.3503V22.3565V22.3627V22.369V22.3752V22.3814V22.3876V22.3938V22.4V22.4062V22.4124V22.4186V22.4247V22.4309V22.4371V22.4433V22.4494V22.4556V22.4617V22.4679V22.474V22.4802V22.4863V22.4924V22.4985V22.5046V22.5107V22.5168V22.5229V22.529V22.5351V22.5412V22.5473V22.5533V22.5594V22.5654V22.5715V22.5775V22.5836V22.5896V22.5956V22.6016V22.6076V22.6136V22.6196V22.6256V22.6315V22.6375V22.6435V22.6494V22.6554V22.6613V22.6672V22.6731V22.679V22.6849V22.6908V22.6967V22.7026V22.7085V22.7143V22.7202V22.726V22.7318V22.7377V22.7435V22.7493V22.7551V22.7608V22.7666V22.7724V22.7781V22.7839V22.7896V22.7953V22.801V22.8067V22.8124V22.8181V22.8238V22.8294V22.8351V22.8407V22.8464V22.852V22.8576V22.8632V22.8688V22.8743V22.8799V22.8854V22.891V22.8965V22.902V22.9075V22.913V22.9185V22.9239V22.9294V22.9348V22.9403C11.0385 23.1189 10.8937 23.2637 10.7151 23.2637C10.5365 23.2637 10.3917 23.1189 10.3917 22.9403C10.3917 22.5871 10.4153 22.0251 10.4398 21.5405C10.4519 21.3005 10.464 21.0833 10.4731 20.9262L10.4841 20.7403L10.4871 20.6901L10.4879 20.6771L10.4881 20.6739L10.4882 20.6731L10.4882 20.6729L10.4882 20.6729L10.5137 20.2642L10.1454 20.0929L10.1424 20.0914C10.1376 20.089 10.1284 20.0843 10.1152 20.0772C10.0889 20.0629 10.0477 20.0394 9.99645 20.0065C9.89304 19.94 9.75469 19.8387 9.61763 19.7019C9.34455 19.4294 9.09824 19.0411 9.09824 18.5062ZM11.3982 19.9896L11.3982 19.9896L11.3984 19.9896L11.3982 19.9896ZM9.5347 17.3372L11.4001 19.9888C11.4035 19.9872 11.411 19.9836 11.422 19.978C11.4442 19.9667 11.4801 19.9475 11.525 19.9197C11.6159 19.8636 11.7385 19.7761 11.8602 19.6543C12.0986 19.416 12.3306 19.0527 12.3306 18.5062C12.3306 17.928 12.1206 17.5432 11.8408 17.2959C11.5493 17.0384 11.1421 16.8963 10.7127 16.8947C10.1927 16.8926 9.79847 17.0703 9.5347 17.3372ZM12.7088 20.5028C12.5424 20.6693 12.3765 20.7958 12.2385 20.8875V20.8889V20.8931V20.8973V20.9015V20.9057V20.9099V20.9142V20.9185V20.9227V20.9271V20.9314V20.9357V20.9401V20.9445V20.9489V20.9533V20.9578V20.9622V20.9667V20.9712V20.9757V20.9802V20.9848V20.9894V20.994V20.9986V21.0032V21.0078V21.0125V21.0171V21.0218V21.0265V21.0313V21.036V21.0408V21.0455V21.0503V21.0551V21.06V21.0648V21.0697V21.0745V21.0794V21.0843V21.0892V21.0942V21.0991V21.1041V21.1091V21.1141V21.1191V21.1241V21.1292V21.1342V21.1393V21.1444V21.1495V21.1546V21.1597V21.1649V21.17V21.1752V21.1804V21.1856V21.1908V21.1961V21.2013V21.2066V21.2118V21.2171V21.2224V21.2277V21.2331V21.2384V21.2438V21.2491V21.2545V21.2599V21.2653V21.2707V21.2761V21.2816V21.287V21.2925V21.298V21.3035V21.309V21.3145V21.32V21.3256V21.3311V21.3367V21.3423V21.3478V21.3534V21.359V21.3647V21.3703V21.3759V21.3816V21.3873V21.3929V21.3986V21.4043V21.41V21.4157V21.4214V21.4272V21.4329V21.4387V21.4444V21.4502V21.456V21.4618V21.4676V21.4734V21.4792V21.4851V21.4909V21.4968V21.5026V21.5085V21.5144V21.5203V21.5261V21.532V21.538V21.5439V21.5498V21.5557V21.5617V21.5676V21.5736V21.5796V21.5855V21.5915V21.5975V21.6035V21.6095V21.6155V21.6215V21.6276V21.6336V21.6396V21.6457V21.6517V21.6578V21.6639V21.6699V21.676V21.6821V21.6882V21.6943V21.7004V21.7065V21.7126V21.7187V21.7249V21.731V21.7371V21.7433V21.7494V21.7556V21.7617V21.7679V21.7741V21.7803V21.7864V21.7926V21.7988V21.805V21.8112V21.8174V21.8236V21.8298V21.836V21.8422V21.8484V21.8547V21.8609V21.8671V21.8734V21.8796V21.8858V21.8921V21.8983V21.9046V21.9108V21.9171V21.9233V21.9296V21.9359V21.9421V21.9484V21.9547V21.9609V21.9672V21.9735V21.9798V21.9861V21.9923V21.9986V22.0049V22.0112V22.0175V22.0238V22.0301V22.0363V22.0426V22.0489V22.0552V22.0615V22.0678V22.0741V22.0804V22.0867V22.093V22.0993V22.1056V22.1119V22.1182V22.1245V22.1308V22.1371V22.1434V22.1497V22.156V22.1623V22.1686V22.1748V22.1811V22.1874V22.1937V22.2V22.2063V22.2126V22.2189V22.2251V22.2314V22.2377V22.244V22.2502V22.2565V22.2628V22.2691V22.2753V22.2816V22.2878V22.2941V22.3004V22.3066V22.3129V22.3191V22.3253V22.3316V22.3378V22.3441V22.3503V22.3565V22.3627V22.369V22.3752V22.3814V22.3876V22.3938V22.4V22.4062V22.4124V22.4186V22.4247V22.4309V22.4371V22.4433V22.4494V22.4556V22.4617V22.4679V22.474V22.4802V22.4863V22.4924V22.4985V22.5046V22.5107V22.5168V22.5229V22.529V22.5351V22.5412V22.5473V22.5533V22.5594V22.5654V22.5715V22.5775V22.5836V22.5896V22.5956V22.6016V22.6076V22.6136V22.6196V22.6256V22.6315V22.6375V22.6435V22.6494V22.6554V22.6613V22.6672V22.6731V22.679V22.6849V22.6908V22.6967V22.7026V22.7085V22.7143V22.7202V22.726V22.7318V22.7377V22.7435V22.7493V22.7551V22.7608V22.7666V22.7724V22.7781V22.7839V22.7896V22.7953V22.801V22.8067V22.8124V22.8181V22.8238V22.8294V22.8351V22.8407V22.8464V22.852V22.8576V22.8632V22.8688V22.8743V22.8799V22.8854V22.891V22.8965V22.902V22.9075V22.913V22.9185V22.9239V22.9294V22.9348V22.9403C12.2385 23.7816 11.5564 24.4637 10.7151 24.4637C9.87375 24.4637 9.1917 23.7816 9.1917 22.9403C9.1917 22.5529 9.21693 21.9627 9.2413 21.48C9.25104 21.287 9.26078 21.1088 9.26899 20.9639C9.12371 20.8647 8.94731 20.7283 8.76998 20.5513C8.34749 20.1297 7.89824 19.4533 7.89824 18.5062C7.89824 17.7219 8.17039 17.0105 8.68125 16.4936C9.19345 15.9754 9.9076 15.6915 10.7175 15.6947C11.3954 15.6973 12.096 15.9201 12.6354 16.3967C13.1865 16.8837 13.5306 17.6025 13.5306 18.5062C13.5306 19.4418 13.1165 20.0951 12.7088 20.5028Z" fill="#2E3338"/>
</svg>
