<svg width="312" height="368" viewBox="0 0 312 368" fill="none" xmlns="http://www.w3.org/2000/svg">
<path fill-rule="evenodd" clip-rule="evenodd" d="M307.86 104.386L308.284 105.202L307.4 105.453L149.997 150.119L147.893 150.716L149.188 148.953L254.999 4.97165L255.713 4L256.269 5.07005L307.86 104.386ZM151.693 148.079L306.105 104.261L255.493 6.83157L151.693 148.079ZM7 365.11C7.74957 364.61 8.50984 364.11 9.28064 363.61C41.3144 342.808 91.5535 321.146 149.196 307.521C194.306 296.859 238.727 291.892 273.283 292.25L273.283 363.61L273.283 365.11H271.783H9.7257H7ZM271.783 363.61H12.0556C43.9894 343.306 93.1948 322.3 149.541 308.981C193.906 298.495 237.581 293.536 271.783 293.737L271.783 363.61Z" fill="#F3D472"/>
<path d="M308.284 105.202L308.83 107.126L311.19 106.457L310.059 104.28L308.284 105.202ZM307.86 104.386L306.086 105.308L306.086 105.308L307.86 104.386ZM307.4 105.453L306.854 103.529L306.854 103.529L307.4 105.453ZM149.997 150.119L149.451 148.195L149.451 148.195L149.997 150.119ZM147.893 150.716L146.281 149.532L142.826 154.233L148.439 152.64L147.893 150.716ZM149.188 148.953L150.8 150.138L150.8 150.138L149.188 148.953ZM254.999 4.97165L256.61 6.15601L256.61 6.156L254.999 4.97165ZM255.713 4L257.488 3.07803L256.005 0.22457L254.101 2.81565L255.713 4ZM256.269 5.07005L258.044 4.14809L258.044 4.14808L256.269 5.07005ZM306.105 104.261L306.651 106.185L309.011 105.516L307.88 103.339L306.105 104.261ZM151.693 148.079L150.081 146.894L146.626 151.595L152.238 150.003L151.693 148.079ZM255.493 6.83157L257.268 5.90961L255.786 3.05615L253.882 5.64721L255.493 6.83157ZM9.28064 363.61L8.1914 361.932L8.19139 361.932L9.28064 363.61ZM7 365.11L5.89105 363.445L0.391202 367.11H7V365.11ZM149.196 307.521L149.656 309.468L149.656 309.468L149.196 307.521ZM273.283 292.25L275.283 292.25L275.283 290.27L273.304 290.25L273.283 292.25ZM273.283 363.61L271.283 363.61L271.283 363.61L273.283 363.61ZM273.283 365.11V367.11H275.283L275.283 365.11L273.283 365.11ZM12.0556 363.61L10.9825 361.922L5.18221 365.61H12.0556V363.61ZM271.783 363.61V365.61H273.783L273.783 363.61L271.783 363.61ZM149.541 308.981L150.001 310.928L150.001 310.928L149.541 308.981ZM271.783 293.737L273.783 293.737L273.783 291.749L271.795 291.737L271.783 293.737ZM310.059 104.28L309.635 103.464L306.086 105.308L306.51 106.124L310.059 104.28ZM307.946 107.377L308.83 107.126L307.738 103.278L306.854 103.529L307.946 107.377ZM150.543 152.043L307.946 107.377L306.854 103.529L149.451 148.195L150.543 152.043ZM148.439 152.64L150.543 152.043L149.451 148.195L147.347 148.792L148.439 152.64ZM147.577 147.769L146.281 149.532L149.504 151.901L150.8 150.138L147.577 147.769ZM253.387 3.78729L147.577 147.769L150.8 150.138L256.61 6.15601L253.387 3.78729ZM254.101 2.81565L253.387 3.7873L256.61 6.156L257.324 5.18435L254.101 2.81565ZM258.044 4.14808L257.488 3.07803L253.938 4.92197L254.494 5.99202L258.044 4.14808ZM309.635 103.464L258.044 4.14809L254.494 5.99202L306.086 105.308L309.635 103.464ZM305.559 102.337L151.147 146.155L152.238 150.003L306.651 106.185L305.559 102.337ZM253.719 7.75354L304.33 105.183L307.88 103.339L257.268 5.90961L253.719 7.75354ZM153.304 149.263L257.105 8.01593L253.882 5.64721L150.081 146.894L153.304 149.263ZM8.19139 361.932C7.41413 362.437 6.6473 362.941 5.89105 363.445L8.10895 366.774C8.85184 366.279 9.60554 365.783 10.3699 365.287L8.19139 361.932ZM148.736 305.575C90.9135 319.242 40.4523 340.983 8.1914 361.932L10.3699 365.287C42.1765 344.633 92.1934 323.05 149.656 309.468L148.736 305.575ZM273.304 290.25C238.563 289.89 193.98 294.881 148.736 305.575L149.656 309.468C194.632 298.837 238.89 293.893 273.262 294.249L273.304 290.25ZM275.283 363.61L275.283 292.25L271.283 292.25L271.283 363.61L275.283 363.61ZM275.283 365.11L275.283 363.61L271.283 363.61L271.283 365.11L275.283 365.11ZM271.783 367.11H273.283V363.11H271.783V367.11ZM9.7257 367.11H271.783V363.11H9.7257V367.11ZM7 367.11H9.7257V363.11H7V367.11ZM12.0556 365.61H271.783V361.61H12.0556V365.61ZM149.081 307.035C92.5566 320.395 43.1361 341.479 10.9825 361.922L13.1286 365.297C44.8428 345.134 93.833 324.204 150.001 310.928L149.081 307.035ZM271.795 291.737C237.413 291.535 193.578 296.517 149.081 307.035L150.001 310.928C194.233 300.472 237.749 295.537 271.771 295.737L271.795 291.737ZM273.783 363.61L273.783 293.737L269.783 293.737L269.783 363.61L273.783 363.61Z" fill="#F3D472"/>
</svg>
