<svg width="343" height="220" viewBox="0 0 343 220" fill="none" xmlns="http://www.w3.org/2000/svg">
<path d="M366.305 65.2969C424.137 81.0197 481.567 88.0667 526.898 87.0996L535.776 -27.6904L181.25 -24.4658C221.133 8.63431 286.66 43.2747 363.551 64.542L366.305 65.2969ZM525.044 85.1338C479.492 85.8852 421.912 78.6089 364.084 62.6143C290.123 42.1573 226.78 9.30389 186.822 -22.5166L533.614 -25.6709L525.044 85.1338ZM-124.33 475.133L129.398 178.526L131.294 176.311L128.438 176.897L-221.67 248.821L-222.871 249.068L-222.388 250.194L-126.009 474.877L-125.375 476.354L-124.33 475.133ZM-220.066 250.533L125.982 179.443L-124.807 472.61L-220.066 250.533Z" fill="#C1CDD7"/>
</svg>
