<svg width="40" height="40" viewBox="0 0 40 40" fill="none" xmlns="http://www.w3.org/2000/svg">
<circle cx="20" cy="20" r="17" fill="#2E3338" stroke="#F3D472" stroke-width="6"/>
<path d="M37.5216 18.9709C37.535 18.9709 37.5475 18.9709 37.5609 18.9709C37.9706 18.9709 38.3602 18.7963 38.6337 18.4913C38.9158 18.1757 39.0453 17.7518 38.9858 17.3326C37.8056 8.87864 31.0725 2.16742 22.6132 1.0126C22.1948 0.957923 21.7793 1.08261 21.4655 1.35981C21.1518 1.63701 20.9743 2.03889 20.9791 2.45709C21.1499 16.1241 23.6235 18.5939 37.5216 18.9709ZM37.5225 21.0273C23.6216 21.3966 21.1479 23.8664 20.9791 37.543C20.9743 37.9622 21.1518 38.3622 21.4655 38.6394C21.7294 38.8734 22.0701 39 22.4184 39C22.4827 39 22.5479 38.9962 22.6132 38.9866C31.0744 37.8317 37.8075 31.1196 38.9858 22.6646C39.0453 22.2454 38.9158 21.8225 38.6337 21.5069C38.3506 21.1913 37.9418 21.0062 37.5225 21.0273ZM2.47525 21.0196C2.05497 20.9985 1.64716 21.1837 1.36602 21.4992C1.08391 21.8148 0.955332 22.2378 1.01386 22.656C2.1893 31.1157 8.92241 37.8308 17.3875 38.9866C17.4527 38.9952 17.518 39 17.5823 39C17.9306 39 18.2712 38.8734 18.5351 38.6394C18.8489 38.3622 19.0264 37.9622 19.0216 37.543C18.8527 23.8444 16.378 21.3736 2.47525 21.0196ZM17.3875 1.01355C8.92241 2.16934 2.1893 8.8844 1.01386 17.3442C0.955332 17.7633 1.08391 18.1853 1.36602 18.5009C1.63853 18.8069 2.02906 18.9805 2.43878 18.9805C2.45126 18.9805 2.46277 18.9805 2.47525 18.9805C16.378 18.6266 18.8527 16.1558 19.0216 2.45709C19.0264 2.03793 18.8489 1.63797 18.5351 1.36077C18.2223 1.08453 17.8087 0.958882 17.3875 1.01355Z" fill="#F3D472"/>
</svg>
