<svg width="366" height="346" viewBox="0 0 366 346" fill="none" xmlns="http://www.w3.org/2000/svg">
<path d="M-48.583 276.012C-3.25129 275.045 54.1789 282.092 112.011 297.814L114.765 298.569C191.655 319.837 257.183 354.477 297.065 387.577L-57.4609 390.802L-48.583 276.012ZM113.965 301.461C56.6013 285.595 -0.500999 278.325 -45.8018 278.964L-54.2178 387.771L288.643 384.653C248.701 353.482 186.458 321.512 113.965 301.461ZM294.904 -215.635L498.785 117.209L501.071 120.939L496.978 119.396L162.555 -6.73633L160.834 -7.38574L161.815 -8.94043L292.357 -215.652L293.645 -217.691L294.904 -215.635ZM165.334 -8.89355L493.941 115.045L293.604 -212.012L165.334 -8.89355Z" fill="#C1CDD7"/>
</svg>
