<svg width="383" height="270" viewBox="0 0 383 270" fill="none" xmlns="http://www.w3.org/2000/svg">
<g clip-path="url(#clip0_947_272)">
<rect width="383" height="270" fill="#D9BDFF"/>
<path d="M-4.14053 402.004C67.0395 480.585 39.5807 511.46 9.12322 526.67L-37.5079 551.676C-23.6747 569.489 20.261 596.24 85.3381 560.733C166.684 516.35 -34.3001 347.008 -0.389703 320.7C32.3971 295.263 100.834 449.86 311.918 452.32C493.052 454.43 -62.6605 148.967 -13.7347 96.0825C22.3868 57.0385 312.351 314.082 503.379 295.022C694.407 275.962 163.796 83.0061 180.441 54.9649C195.839 29.0253 504.812 138.019 570.671 122.185L492.7 79.1833C487.667 93.2852 402.867 67.5717 161.744 9.9001C-204.285 -77.6461 456.267 194.175 419.114 233.086C379.104 274.988 -50.1526 -41.1004 -114.03 46.7993C-177.907 134.699 304.032 347.203 255.807 404.599C207.581 461.995 44.1062 259.02 -30.7423 247.542C-105.591 236.065 -93.1156 303.776 -4.14053 402.004Z" fill="white"/>
</g>
<defs>
</defs>
</svg>
