<svg width="660" height="587" viewBox="0 0 660 587" fill="none" xmlns="http://www.w3.org/2000/svg">
<path fill-rule="evenodd" clip-rule="evenodd" d="M655.774 212.82L656.756 214.375L655.035 215.024L320.147 341.332L316.053 342.876L318.339 339.145L522.504 5.83773L523.764 3.78125L525.051 5.82031L655.774 212.82ZM323.182 336.981L652.255 212.866L523.803 9.46122L323.182 336.981ZM7 584.936C8.49928 583.937 10.0181 582.937 11.5563 581.936C81.6106 536.346 191.703 488.826 318.056 458.96C416.736 435.636 513.908 424.77 589.5 425.553L589.5 581.936L589.5 584.936L586.5 584.936L12.4479 584.936H7ZM586.5 581.936H17.0941C86.9584 537.341 194.985 491.133 318.746 461.88C415.935 438.908 511.615 428.058 586.5 428.528L586.5 581.936Z" fill="#F3D472"/>
<path d="M656.756 214.375L657.462 216.246L659.757 215.381L658.447 213.307L656.756 214.375ZM655.774 212.82L657.465 211.752L657.465 211.752L655.774 212.82ZM655.035 215.024L655.741 216.895L655.741 216.895L655.035 215.024ZM320.147 341.332L320.853 343.203L320.853 343.203L320.147 341.332ZM316.053 342.876L314.348 341.831L311.3 346.806L316.759 344.747L316.053 342.876ZM318.339 339.145L316.633 338.1L316.633 338.1L318.339 339.145ZM522.504 5.83773L520.799 4.79304L520.799 4.79305L522.504 5.83773ZM523.764 3.78125L525.455 2.71336L523.738 -0.00541347L522.058 2.73656L523.764 3.78125ZM525.051 5.82031L523.36 6.88819L523.36 6.88821L525.051 5.82031ZM652.255 212.866L652.961 214.738L655.256 213.872L653.946 211.798L652.255 212.866ZM323.182 336.981L321.477 335.936L318.429 340.911L323.888 338.852L323.182 336.981ZM523.803 9.46122L525.494 8.39331L523.777 5.67457L522.097 8.41654L523.803 9.46122ZM11.5563 581.936L12.6471 583.612L12.6472 583.612L11.5563 581.936ZM7 584.936L5.89103 583.272L0.391363 586.936H7V584.936ZM318.056 458.96L317.596 457.014L317.596 457.014L318.056 458.96ZM589.5 425.553L591.5 425.553L591.5 423.574L589.521 423.553L589.5 425.553ZM589.5 581.936L587.5 581.936L587.5 581.936L589.5 581.936ZM589.5 584.936L589.5 586.936L591.5 586.936L591.5 584.936L589.5 584.936ZM586.5 584.936L586.5 582.936L586.5 582.936L586.5 584.936ZM12.4479 584.936L12.4479 586.936H12.4479L12.4479 584.936ZM17.0941 581.936L16.018 580.25L10.2436 583.936H17.0941V581.936ZM586.5 581.936V583.936H588.5L588.5 581.936L586.5 581.936ZM318.746 461.88L318.286 459.934L318.286 459.934L318.746 461.88ZM586.5 428.528L588.5 428.528L588.5 426.541L586.513 426.528L586.5 428.528ZM658.447 213.307L657.465 211.752L654.083 213.888L655.065 215.443L658.447 213.307ZM655.741 216.895L657.462 216.246L656.05 212.504L654.329 213.153L655.741 216.895ZM320.853 343.203L655.741 216.895L654.329 213.153L319.441 339.46L320.853 343.203ZM316.759 344.747L320.853 343.203L319.441 339.46L315.347 341.004L316.759 344.747ZM316.633 338.1L314.348 341.831L317.759 343.92L320.044 340.189L316.633 338.1ZM520.799 4.79305L316.633 338.1L320.044 340.189L524.21 6.88241L520.799 4.79305ZM522.058 2.73656L520.799 4.79304L524.21 6.88242L525.469 4.82594L522.058 2.73656ZM526.742 4.75242L525.455 2.71336L522.073 4.84914L523.36 6.88819L526.742 4.75242ZM657.465 211.752L526.742 4.7524L523.36 6.88821L654.083 213.888L657.465 211.752ZM651.55 210.995L322.476 335.109L323.888 338.852L652.961 214.738L651.55 210.995ZM522.112 10.5291L650.564 213.934L653.946 211.798L525.494 8.39331L522.112 10.5291ZM324.888 338.025L525.508 10.5059L522.097 8.41654L321.477 335.936L324.888 338.025ZM10.4654 580.26C8.9213 581.265 7.39643 582.269 5.89103 583.272L8.10897 586.601C9.60214 585.606 11.1149 584.61 12.6471 583.612L10.4654 580.26ZM317.596 457.014C191.063 486.923 80.7476 534.521 10.4654 580.26L12.6472 583.612C82.4736 538.17 192.343 490.73 318.516 460.907L317.596 457.014ZM589.521 423.553C513.744 422.768 416.41 433.658 317.596 457.014L318.516 460.907C417.062 437.614 514.072 426.772 589.479 427.553L589.521 423.553ZM591.5 581.936L591.5 425.553L587.5 425.553L587.5 581.936L591.5 581.936ZM591.5 584.936L591.5 581.936L587.5 581.936L587.5 584.936L591.5 584.936ZM586.5 586.936L589.5 586.936L589.5 582.936L586.5 582.936L586.5 586.936ZM12.4479 586.936L586.5 586.936L586.5 582.936L12.4479 582.936L12.4479 586.936ZM7 586.936H12.4479V582.936H7V586.936ZM17.0941 583.936H586.5V579.936H17.0941V583.936ZM318.286 459.934C194.346 489.229 86.1034 535.514 16.018 580.25L18.1701 583.622C87.8134 539.168 195.623 493.038 319.206 463.826L318.286 459.934ZM586.513 426.528C511.448 426.057 415.608 436.93 318.286 459.934L319.206 463.826C416.263 440.885 511.783 430.059 586.488 430.528L586.513 426.528ZM588.5 581.936L588.5 428.528L584.5 428.528L584.5 581.936L588.5 581.936Z" fill="#F3D472"/>
</svg>
