<svg width="653" height="583" viewBox="0 0 653 583" fill="none" xmlns="http://www.w3.org/2000/svg">
<path fill-rule="evenodd" clip-rule="evenodd" d="M650.774 210.038L651.756 211.594L650.035 212.243L315.147 338.55L311.053 340.094L313.339 336.363L517.504 3.05648L518.764 1L520.051 3.03906L650.774 210.038ZM318.182 334.199L647.255 210.085L518.803 6.67997L318.182 334.199ZM2 582.155C3.49928 581.156 5.01812 580.156 6.55626 579.155C76.6106 533.565 186.703 486.045 313.056 456.179C411.736 432.855 508.908 421.989 584.5 422.772L584.5 579.155L584.5 582.155L581.5 582.155L7.44789 582.155H2ZM581.5 579.155H12.0941C81.9584 534.56 189.985 488.352 313.746 459.099C410.935 436.126 506.615 425.277 581.5 425.747L581.5 579.155Z" fill="#F3D472"/>
<path d="M651.756 211.594L651.933 212.062L652.506 211.845L652.179 211.327L651.756 211.594ZM650.774 210.038L651.197 209.771L650.774 210.038ZM650.035 212.243L650.212 212.711L650.035 212.243ZM315.147 338.55L315.323 339.018L315.147 338.55ZM311.053 340.094L310.627 339.833L309.865 341.077L311.23 340.562L311.053 340.094ZM313.339 336.363L312.912 336.102L313.339 336.363ZM517.504 3.05648L517.078 2.79531V2.79531L517.504 3.05648ZM518.764 1L519.187 0.733028L518.757 0.0533341L518.337 0.738827L518.764 1ZM520.051 3.03906L519.629 3.30603V3.30603L520.051 3.03906ZM647.255 210.085L647.432 210.553L648.006 210.336L647.678 209.818L647.255 210.085ZM318.182 334.199L317.756 333.938L316.994 335.182L318.359 334.667L318.182 334.199ZM518.803 6.67997L519.225 6.41299L518.796 5.73331L518.376 6.4188L518.803 6.67997ZM6.55626 579.155L6.82898 579.574H6.82899L6.55626 579.155ZM2 582.155L1.72276 581.739L0.347841 582.655H2V582.155ZM313.056 456.179L312.941 455.693L313.056 456.179ZM584.5 422.772H585V422.277L584.505 422.272L584.5 422.772ZM584.5 579.155H584H584.5ZM584.5 582.155V582.655H585V582.155H584.5ZM581.5 582.155V581.655V582.155ZM7.44789 582.155V582.655V582.155ZM12.0941 579.155L11.825 578.733L10.3814 579.655H12.0941V579.155ZM581.5 579.155V579.655H582V579.155H581.5ZM313.746 459.099L313.631 458.612L313.746 459.099ZM581.5 425.747H582V425.25L581.503 425.247L581.5 425.747ZM652.179 211.327L651.197 209.771L650.351 210.305L651.334 211.861L652.179 211.327ZM650.212 212.711L651.933 212.062L651.58 211.126L649.859 211.775L650.212 212.711ZM315.323 339.018L650.212 212.711L649.859 211.775L314.971 338.082L315.323 339.018ZM311.23 340.562L315.323 339.018L314.971 338.082L310.877 339.627L311.23 340.562ZM312.912 336.102L310.627 339.833L311.479 340.356L313.765 336.624L312.912 336.102ZM517.078 2.79531L312.912 336.102L313.765 336.624L517.93 3.31765L517.078 2.79531ZM518.337 0.738827L517.078 2.79531L517.93 3.31765L519.19 1.26117L518.337 0.738827ZM520.474 2.77208L519.187 0.733028L518.341 1.26697L519.629 3.30603L520.474 2.77208ZM651.197 209.771L520.474 2.77208L519.629 3.30603L650.351 210.305L651.197 209.771ZM647.079 209.617L318.006 333.731L318.359 334.667L647.432 210.553L647.079 209.617ZM518.38 6.94694L646.833 210.352L647.678 209.818L519.225 6.41299L518.38 6.94694ZM318.609 334.46L519.229 6.94114L518.376 6.4188L317.756 333.938L318.609 334.46ZM6.28354 578.736C4.74392 579.738 3.22357 580.739 1.72276 581.739L2.27724 582.571C3.775 581.573 5.29233 580.574 6.82898 579.574L6.28354 578.736ZM312.941 455.693C186.543 485.569 76.3949 533.108 6.28354 578.736L6.82899 579.574C76.8264 534.021 186.863 486.521 313.171 456.666L312.941 455.693ZM584.505 422.272C508.867 421.488 411.654 432.36 312.941 455.693L313.171 456.666C411.817 433.349 508.949 422.489 584.495 423.272L584.505 422.272ZM585 579.155L585 422.772H584L584 579.155H585ZM585 582.155L585 579.155H584L584 582.155H585ZM581.5 582.655L584.5 582.655V581.655L581.5 581.655V582.655ZM7.44789 582.655L581.5 582.655V581.655L7.44789 581.655V582.655ZM2 582.655H7.44789V581.655H2V582.655ZM12.0941 579.655H581.5V578.655H12.0941V579.655ZM313.631 458.612C189.825 487.876 81.7446 534.103 11.825 578.733L12.3631 579.576C82.1721 535.017 190.144 488.828 313.861 459.585L313.631 458.612ZM581.503 425.247C506.573 424.777 410.854 435.632 313.631 458.612L313.861 459.585C411.017 436.621 506.657 425.777 581.497 426.247L581.503 425.247ZM582 579.155L582 425.747H581L581 579.155H582Z" fill="#F3D472"/>
</svg>
