<svg width="650" height="582" viewBox="0 0 650 582" fill="none" xmlns="http://www.w3.org/2000/svg">
<path fill-rule="evenodd" clip-rule="evenodd" d="M648.774 209.038L649.756 210.594L648.035 211.243L313.147 337.55L309.053 339.094L311.339 335.363L515.504 2.05648L516.764 0L518.051 2.03906L648.774 209.038ZM316.182 333.199L645.255 209.085L516.803 5.67997L316.182 333.199ZM0 581.155C1.49928 580.156 3.01812 579.156 4.55626 578.155C74.6106 532.565 184.703 485.045 311.056 455.179C409.736 431.855 506.908 420.989 582.5 421.772L582.5 578.155L582.5 581.155L579.5 581.155L5.44789 581.155H0ZM579.5 578.155H10.0941C79.9584 533.56 187.985 487.352 311.746 458.099C408.935 435.126 504.615 424.277 579.5 424.747L579.5 578.155Z" fill="#C1CDD7"/>
</svg>
