<svg width="650" height="583" viewBox="0 0 650 583" fill="none" xmlns="http://www.w3.org/2000/svg">
<path fill-rule="evenodd" clip-rule="evenodd" d="M648.774 209.929L649.756 211.484L648.035 212.133L313.147 338.441L309.053 339.985L311.339 336.254L515.504 2.9471L516.764 0.890625L518.051 2.92968L648.774 209.929ZM316.182 334.09L645.255 209.976L516.803 6.57059L316.182 334.09ZM0 582.046C1.49928 581.047 3.01812 580.047 4.55626 579.046C74.6106 533.455 184.703 485.936 311.056 456.07C409.736 432.745 506.908 421.879 582.5 422.662L582.5 579.046L582.5 582.046L579.5 582.045L5.44789 582.046H0ZM579.5 579.046H10.0941C79.9584 534.451 187.985 488.243 311.746 458.989C408.935 436.017 504.615 425.168 579.5 425.638L579.5 579.046Z" fill="#C1CDD7"/>
</svg>
