<svg width="305" height="363" viewBox="0 0 305 363" fill="none" xmlns="http://www.w3.org/2000/svg">
<path fill-rule="evenodd" clip-rule="evenodd" d="M302.86 101.386L303.284 102.202L302.4 102.453L144.997 147.119L142.893 147.716L144.188 145.953L249.999 1.97165L250.713 1L251.269 2.07005L302.86 101.386ZM146.693 145.079L301.105 101.261L250.493 3.83157L146.693 145.079ZM2 362.11C2.74957 361.61 3.50984 361.11 4.28064 360.61C36.3144 339.808 86.5535 318.146 144.196 304.521C189.306 293.859 233.727 288.892 268.283 289.25L268.283 360.61L268.283 362.11H266.783H4.7257H2ZM266.783 360.61H7.05555C38.9894 340.306 88.1948 319.3 144.541 305.981C188.906 295.495 232.581 290.536 266.783 290.737L266.783 360.61Z" fill="#F3D472"/>
<path d="M303.284 102.202L303.421 102.683L304.011 102.516L303.728 101.972L303.284 102.202ZM302.86 101.386L302.417 101.617L302.86 101.386ZM302.4 102.453L302.263 101.972L302.4 102.453ZM144.997 147.119L144.861 146.638L144.997 147.119ZM142.893 147.716L142.49 147.42L141.626 148.595L143.029 148.197L142.893 147.716ZM144.188 145.953L144.591 146.249L144.188 145.953ZM249.999 1.97165L250.402 2.26774V2.26774L249.999 1.97165ZM250.713 1L251.157 0.769508L250.786 0.0561426L250.31 0.703912L250.713 1ZM251.269 2.07005L251.712 1.83956V1.83956L251.269 2.07005ZM301.105 101.261L301.242 101.742L301.832 101.575L301.549 101.031L301.105 101.261ZM146.693 145.079L146.29 144.783L145.426 145.958L146.829 145.56L146.693 145.079ZM250.493 3.83157L250.937 3.60108L250.567 2.88771L250.091 3.53548L250.493 3.83157ZM4.28064 360.61L4.00833 360.19H4.00833L4.28064 360.61ZM2 362.11L1.72276 361.694L0.347801 362.61H2V362.11ZM144.196 304.521L144.311 305.008L144.196 304.521ZM268.283 289.25H268.783V288.755L268.288 288.75L268.283 289.25ZM268.283 360.61H267.783H268.283ZM268.283 362.11V362.61H268.783V362.11H268.283ZM7.05555 360.61L6.78729 360.188L5.33722 361.11H7.05555V360.61ZM266.783 360.61V361.11H267.283V360.61H266.783ZM144.541 305.981L144.656 306.468L144.541 305.981ZM266.783 290.737H267.283V290.24L266.786 290.237L266.783 290.737ZM303.728 101.972L303.304 101.156L302.417 101.617L302.841 102.433L303.728 101.972ZM302.536 102.934L303.421 102.683L303.148 101.721L302.263 101.972L302.536 102.934ZM145.134 147.6L302.536 102.934L302.263 101.972L144.861 146.638L145.134 147.6ZM143.029 148.197L145.134 147.6L144.861 146.638L142.756 147.235L143.029 148.197ZM143.785 145.657L142.49 147.42L143.296 148.012L144.591 146.249L143.785 145.657ZM249.596 1.67556L143.785 145.657L144.591 146.249L250.402 2.26774L249.596 1.67556ZM250.31 0.703912L249.596 1.67556L250.402 2.26774L251.116 1.29609L250.31 0.703912ZM251.712 1.83956L251.157 0.769508L250.269 1.23049L250.825 2.30054L251.712 1.83956ZM303.304 101.156L251.712 1.83956L250.825 2.30054L302.417 101.617L303.304 101.156ZM300.969 100.78L146.556 144.598L146.829 145.56L301.242 101.742L300.969 100.78ZM250.05 4.06206L300.662 101.492L301.549 101.031L250.937 3.60108L250.05 4.06206ZM147.095 145.375L250.896 4.12766L250.091 3.53548L146.29 144.783L147.095 145.375ZM4.00833 360.19C3.23591 360.692 2.474 361.193 1.72276 361.694L2.27724 362.526C3.02514 362.027 3.78376 361.528 4.55295 361.029L4.00833 360.19ZM144.081 304.035C86.3935 317.67 36.0988 339.352 4.00833 360.19L4.55295 361.029C36.5299 340.264 86.7134 318.622 144.311 305.008L144.081 304.035ZM268.288 288.75C233.686 288.391 189.224 293.364 144.081 304.035L144.311 305.008C189.387 294.353 233.768 289.392 268.278 289.75L268.288 288.75ZM268.783 360.61L268.783 289.25H267.783L267.783 360.61H268.783ZM268.783 362.11L268.783 360.61H267.783L267.783 362.11H268.783ZM266.783 362.61H268.283V361.61H266.783V362.61ZM4.7257 362.61H266.783V361.61H4.7257V362.61ZM2 362.61H4.7257V361.61H2V362.61ZM7.05555 361.11H266.783V360.11H7.05555V361.11ZM144.426 305.495C88.0353 318.823 38.7761 339.85 6.78729 360.188L7.32382 361.032C39.2028 340.763 88.3544 319.776 144.656 306.468L144.426 305.495ZM266.786 290.237C232.539 290.036 188.824 295 144.426 305.495L144.656 306.468C188.987 295.989 232.623 291.036 266.78 291.237L266.786 290.237ZM267.283 360.61L267.283 290.737H266.283L266.283 360.61H267.283Z" fill="#F3D472"/>
</svg>
