<svg width="373" height="376" viewBox="0 0 373 376" fill="none" xmlns="http://www.w3.org/2000/svg">
<g clip-path="url(#clip0_1077_430)">
<rect width="373" height="376" fill="#D9BDFF"/>
<path d="M494.562 472.647L317.682 472.647L226.896 308.162L317.682 157.076L494.562 159.31L584.008 313.075L494.562 472.647Z" stroke="white" stroke-width="25.3282"/>
<circle cx="405.452" cy="314.794" r="91.6318" stroke="white" stroke-width="25.3282"/>
<path d="M85.9023 314.956H725.018" stroke="white" stroke-width="23.6397"/>
<path d="M141.9 359.459L186.973 314.387L142.796 270.209" stroke="white" stroke-width="23.6397"/>
<path d="M86.1777 360.304L131.251 315.231L87.0732 271.054" stroke="white" stroke-width="23.6397"/>
<path d="M560.686 594.375L249.345 36.2205" stroke="white" stroke-width="23.6397"/>
<path d="M315.607 63.6562L298.201 124.976L238.099 107.916" stroke="white" stroke-width="23.6397"/>
<path d="M289.199 14.5815L271.793 75.9017L211.691 58.8413" stroke="white" stroke-width="23.6397"/>
<path d="M89.5623 75.6481L-87.3182 75.6481L-178.104 -88.8374L-87.3182 -239.923L89.5623 -237.69L179.008 -83.924L89.5623 75.6481Z" stroke="white" stroke-width="25.3282"/>
<circle cx="0.452194" cy="-82.205" r="91.6318" stroke="white" stroke-width="25.3282"/>
<path d="M155.686 197.375L-155.655 -360.779" stroke="white" stroke-width="23.6397"/>
<path d="M167.273 126.792L105.953 109.386L88.8929 169.487" stroke="white" stroke-width="23.6397"/>
<path d="M195.156 175.044L133.836 157.637L116.776 217.739" stroke="white" stroke-width="23.6397"/>
</g>
<defs>
</defs>
</svg>
